<svg id="Group_1" data-name="Group 1" xmlns="http://www.w3.org/2000/svg" width="36.137" height="40.537" viewBox="0 0 36.137 40.537">
  <defs>
    <style>
      .cls-1 {
        fill: #d59c3b;
        fill-rule: evenodd;
      }
    </style>
  </defs>
  <path id="Path_1" data-name="Path 1" class="cls-1" d="M.748,147H31.682a16.716,16.716,0,0,1-.125,2.495,4.641,4.641,0,0,1,3.492,1.622c1.746,2,1.372,5.363-1,7.359a5.367,5.367,0,0,1-5.363,1.123c-.249.374-.374.748-.624,1.123,2.744.873,4.366,2.12,4.366,3.492,0,2.744-7.234,4.989-16.215,4.989S0,166.957,0,164.213c0-1.372,1.621-2.495,4.241-3.368C1.746,156.854.748,151.241.748,147Zm25.2,16.34a8.412,8.412,0,0,1-5.862,2.495H12.1a7.8,7.8,0,0,1-5.738-2.37,1.773,1.773,0,0,0-.249.748c0,1.746,4.49,3.118,10.1,3.118s10.1-1.372,10.1-3.118A1.132,1.132,0,0,0,25.944,163.34Zm5.363-11.6a34.256,34.256,0,0,1-1.621,5.862,3.705,3.705,0,0,0,3.118-.748,3.128,3.128,0,0,0,.5-4.241A2.482,2.482,0,0,0,31.307,151.74Z" transform="translate(0 -128.665)"/>
  <path id="Path_2" data-name="Path 2" class="cls-1" d="M54.8,0c11.849,5.613-6.112,8.731,2.12,16.34C42.2,8.981,62.155,6.361,54.8,0Z" transform="translate(-44.942)"/>
  <path id="Path_3" data-name="Path 3" class="cls-1" d="M127.474,0c11.849,5.613-6.112,8.731,2,16.34C114.876,8.981,134.833,6.361,127.474,0Z" transform="translate(-108.515)"/>
</svg>
