<svg xmlns="http://www.w3.org/2000/svg" width="23.488" height="31.644" viewBox="0 0 23.488 31.644">
  <g id="Group_90" data-name="Group 90" transform="translate(-68.752 -2.646)">
    <g id="Group_89" data-name="Group 89" transform="translate(68.752 2.646)">
      <path id="Path_2409" data-name="Path 2409" d="M92.234,33.18,90.022,12.32a1,1,0,0,0-1-.9H86.038V8.187a5.542,5.542,0,1,0-11.083,0v3.235H71.968a1,1,0,0,0-1,.9L68.758,33.18a1,1,0,0,0,1,1.109H91.236a1,1,0,0,0,1-1.109ZM76.961,8.187a3.535,3.535,0,1,1,7.069,0v3.235H76.961Zm-6.09,24.1,2-18.853h15.25l2,18.853Z" transform="translate(-68.752 -2.646)" fill="#fafafa"/>
      <circle id="Ellipse_13" data-name="Ellipse 13" cx="1.059" cy="1.059" r="1.059" transform="translate(6.517 12.186)" fill="#fafafa"/>
      <circle id="Ellipse_14" data-name="Ellipse 14" cx="1.059" cy="1.059" r="1.059" transform="translate(14.853 12.186)" fill="#fafafa"/>
    </g>
  </g>
</svg>
