<svg xmlns="http://www.w3.org/2000/svg" width="41.857" height="57.404" viewBox="0 0 41.857 57.404">
  <defs>
    <style>
      .cls-1 {
        fill: #d59c3b;
      }
    </style>
  </defs>
  <g id="Group_75" data-name="Group 75" transform="translate(-924.5 -1031)">
    <path id="Path_2397" data-name="Path 2397" class="cls-1" d="M48.225,17.4,43.573,8.084V1.2a1.2,1.2,0,0,0-1.2-1.2H12.48a1.2,1.2,0,0,0-1.2,1.2V8.084L6.632,17.4a1.2,1.2,0,0,0-.132.538V56.208a1.2,1.2,0,0,0,1.2,1.2H47.161a1.2,1.2,0,0,0,1.2-1.2V17.939a1.2,1.2,0,0,0-.132-.538ZM13.675,2.392h7.175V7.175H13.675ZM36.529,17.4a1.2,1.2,0,0,0-.132.538V55.012H8.892V18.226l4.329-8.658h6.888L16.2,17.4a1.2,1.2,0,0,0-.132.538V28.7a1.2,1.2,0,0,0,1.2,1.2h8.371a1.2,1.2,0,0,0,1.2-1.2V18.226L31.16,9.567h9.28ZM41.181,7.175H31.614V2.392h9.567Z" transform="translate(918 1031)"/>
    <path id="Path_2398" data-name="Path 2398" class="cls-1" d="M20.493,26c-3.337,0-6.063,3.588-6.063,8s2.727,8,6.063,8,6.063-3.588,6.063-8S23.83,26,20.493,26ZM22,39.083a7.02,7.02,0,0,0,.287-2.32,6.948,6.948,0,0,0-.753-3.313,4.616,4.616,0,0,1-.442-2.26,4.688,4.688,0,0,1,.538-2.308l.072-.167A5.98,5.98,0,0,1,24.213,34,6.35,6.35,0,0,1,22,39.083Z" transform="translate(919.554 1036.094)"/>
    <rect id="Rectangle_59" data-name="Rectangle 59" class="cls-1" width="20.524" height="2.799" transform="translate(930.097 1078.577)"/>
    <rect id="Rectangle_60" data-name="Rectangle 60" class="cls-1" width="20.524" height="2.799" transform="translate(930.097 1082.309)"/>
  </g>
</svg>
