<svg xmlns="http://www.w3.org/2000/svg" width="24.604" height="22.921" viewBox="0 0 24.604 22.921">
  <defs>
    <style>
      .cls-1 {
        fill: #d59c3b;
      }
    </style>
  </defs>
  <g id="Group_65" data-name="Group 65" transform="translate(-5 -11.4)">
    <path id="Path_2393" data-name="Path 2393" class="cls-1" d="M9.069,28.828h7.7l8.493,5.493-.41-5.493h.683A4.268,4.268,0,0,0,29.6,24.4V15.824A4.268,4.268,0,0,0,25.535,11.4H9.069A4.268,4.268,0,0,0,5,15.824V24.4A4.268,4.268,0,0,0,9.069,28.828Zm-2.758-13a2.893,2.893,0,0,1,2.731-3H25.508a2.9,2.9,0,0,1,2.758,3V24.4a2.87,2.87,0,0,1-2.758,2.969h-2.13l.328,4.275L17.124,27.4H9.069a2.866,2.866,0,0,1-2.731-2.969v-8.61Z"/>
  </g>
</svg>
