<svg xmlns="http://www.w3.org/2000/svg" width="76" height="76" viewBox="0 0 76 76">
  <defs>
    <style>
      .cls-1, .cls-3 {
        fill: #d59c3b;
      }

      .cls-1 {
        opacity: 0.3;
      }

      .cls-2 {
        fill: #fafafa;
      }
    </style>
  </defs>
  <g id="Group_197" data-name="Group 197" transform="translate(-320 -1219)">
    <circle id="Ellipse_21" data-name="Ellipse 21" class="cls-1" cx="38" cy="38" r="38" transform="translate(320 1219)"/>
    <circle id="Ellipse_22" data-name="Ellipse 22" class="cls-2" cx="34" cy="34" r="34" transform="translate(324 1223)"/>
    <g id="Group_105" data-name="Group 105" transform="translate(337.154 1236.215)">
      <path id="Path_2423" data-name="Path 2423" class="cls-3" d="M32.2,15.755a45.888,45.888,0,0,0-8.65-8.109,17.748,17.748,0,0,1,7.8-2.356,8.633,8.633,0,0,1,1.776.193,3.875,3.875,0,0,1,2.819,2.394c.772,1.892.5,4.479-.579,7.3.7.888,1.313,1.815,1.892,2.7C39.146,13.67,39.726,9.692,38.529,6.8a6.731,6.731,0,0,0-4.75-4.055c-4.634-1.2-11.546,1.39-18.034,6.681a45.888,45.888,0,0,0-8.109,8.65C5.705,14.4,4.856,10.928,5.512,8.5A3.8,3.8,0,0,1,7.906,5.676a6.27,6.27,0,0,1,2.471-.425,13.826,13.826,0,0,1,4.788,1,32.071,32.071,0,0,1,2.742-1.931C13.7,2.471,9.76,1.931,6.864,3.089A6.781,6.781,0,0,0,2.77,7.839a9.787,9.787,0,0,0-.27,2.433c0,4.479,2.51,10.195,6.989,15.6a44.924,44.924,0,0,0,8.689,8.109c-3.669,1.931-7.144,2.78-9.577,2.124a3.8,3.8,0,0,1-2.819-2.394,6.27,6.27,0,0,1-.425-2.471,13.826,13.826,0,0,1,1-4.788A32.07,32.07,0,0,1,4.431,23.71C2.5,27.958,1.959,31.9,3.118,34.793a6.577,6.577,0,0,0,4.75,4.055,9.787,9.787,0,0,0,2.433.27c4.479,0,10.195-2.51,15.6-6.989a44.924,44.924,0,0,0,8.109-8.689,17.748,17.748,0,0,1,2.356,7.8,8.633,8.633,0,0,1-.193,1.776,3.875,3.875,0,0,1-2.394,2.819c-1.892.772-4.479.5-7.3-.579-.888.7-1.815,1.313-2.7,1.892,4.209,1.892,8.187,2.471,11.083,1.274a6.731,6.731,0,0,0,4.055-4.75C40.073,29.116,37.525,22.2,32.2,15.755ZM24.125,30c-1.081.888-2.2,1.66-3.282,2.394a42.84,42.84,0,0,1-9.191-8.3c-.888-1.081-1.66-2.2-2.394-3.282a42.84,42.84,0,0,1,8.3-9.191,35.284,35.284,0,0,1,3.282-2.394,42.84,42.84,0,0,1,9.191,8.3,35.284,35.284,0,0,1,2.394,3.282A42.841,42.841,0,0,1,24.125,30Z"/>
      <path id="Path_2424" data-name="Path 2424" class="cls-3" d="M40.792,35a5.792,5.792,0,1,0,5.792,5.792A5.785,5.785,0,0,0,40.792,35Zm0,8.766a2.973,2.973,0,1,1,2.973-2.973A2.975,2.975,0,0,1,40.792,43.766Z" transform="translate(-19.95 -19.979)"/>
    </g>
  </g>
</svg>
