<svg xmlns="http://www.w3.org/2000/svg" width="30.108" height="53.882" viewBox="0 0 30.108 53.882">
  <defs>
    <style>
      .cls-1 {
        fill: #d59c3b;
      }
    </style>
  </defs>
  <path id="Path_2400" data-name="Path 2400" class="cls-1" d="M38.323,9.113,28.815,1.19A.747.747,0,0,0,28.308,1H18.8a.747.747,0,0,0-.507.19L8.785,9.113a.784.784,0,0,0-.285.6v44.37a.8.8,0,0,0,.364.666.808.808,0,0,0,.761.063l13.945-6.2,13.945,6.2a.6.6,0,0,0,.3.063.8.8,0,0,0,.792-.792V9.716A.784.784,0,0,0,38.323,9.113ZM23.554,4.169a3.95,3.95,0,0,1,3.771,2.837H19.767A3.984,3.984,0,0,1,23.554,4.169ZM27.278,9.43a3.936,3.936,0,0,1-7.448,0ZM22.762,29.524h1.585a6.339,6.339,0,0,1,0,12.677v2.377a.792.792,0,1,1-1.585,0V42.2H21.97a5.552,5.552,0,0,1-5.546-5.546.792.792,0,1,1,1.585,0,3.963,3.963,0,0,0,3.962,3.962h2.377a4.754,4.754,0,0,0,0-9.508H22.762a6.339,6.339,0,1,1,0-12.677V16.054a.792.792,0,0,1,1.585,0v2.377h.792a5.552,5.552,0,0,1,5.546,5.546.792.792,0,0,1-1.585,0,3.963,3.963,0,0,0-3.962-3.962H22.762a4.754,4.754,0,1,0,0,9.508Z" transform="translate(-8.5 -1)"/>
</svg>
