<svg xmlns="http://www.w3.org/2000/svg" width="15.311" height="14.59" viewBox="0 0 15.311 14.59">
  <g id="Group_832" data-name="Group 832" transform="translate(-1081.245 -852.966)">
    <g id="Group_761" data-name="Group 761" transform="translate(1076.245 845.846)">
      <path id="Path_39" data-name="Path 39" d="M5.187,13.1l3.447,3.36L7.82,21.207c-.076.438.183.626.576.419l4.26-2.24,4.26,2.24c.394.207.652.019.576-.419l-.813-4.743,3.446-3.36c.318-.31.219-.613-.22-.677l-4.762-.692L13.012,7.42c-.2-.4-.515-.4-.712,0l-2.13,4.316-4.763.692C4.967,12.491,4.869,12.794,5.187,13.1Z" fill="#d59c3b"/>
    </g>
    <path id="Subtraction_32" data-name="Subtraction 32" d="M-3637.548-10650.746a.644.644,0,0,1-.29-.084l-4.161-2.187v-12.3a.545.545,0,0,1,.257.278l2.132,4.314,4.761.693c.213.031.353.119.394.247a.441.441,0,0,1-.175.431l-3.446,3.36.814,4.74a.5.5,0,0,1-.067.41A.273.273,0,0,1-3637.548-10650.746Z" transform="translate(4731 11518.301)" fill="#ede0c9"/>
  </g>
</svg>
