<svg xmlns="http://www.w3.org/2000/svg" width="45.354" height="61.241" viewBox="0 0 45.354 61.241">
  <defs>
    <style>
      .cls-1 {
        fill: #d59c3b;
      }
    </style>
  </defs>
  <path id="Path_2399" data-name="Path 2399" class="cls-1" d="M36.433,36.629A12.326,12.326,0,1,0,24.107,24.3,12.31,12.31,0,0,0,36.433,36.629ZM28.3,20.862l5.193-.375,1.94-4.818a1.091,1.091,0,0,1,2,0l1.94,4.818,5.193.375a1.1,1.1,0,0,1,.626,1.94L41.25,26.18,42.5,31.248a1.092,1.092,0,0,1-1.627,1.189l-4.442-2.816L31.99,32.374a1.092,1.092,0,0,1-1.627-1.189l1.251-5.068L27.673,22.8A1.1,1.1,0,0,1,28.3,20.862ZM24.17,40.633l1.564,3.942a1.241,1.241,0,0,0,1.5.688L31.3,44.012a1.324,1.324,0,0,1,1.189.25l3.128,2.878a1.171,1.171,0,0,0,1.627,0l3.128-2.878a1.168,1.168,0,0,1,1.189-.25l4.067,1.251a1.241,1.241,0,0,0,1.5-.688L48.7,40.633a1.277,1.277,0,0,1,.939-.751l4.192-.688a1.166,1.166,0,0,0,1-1.251l-.25-4.255a1.336,1.336,0,0,1,.5-1.064l3.5-2.44a1.27,1.27,0,0,0,.375-1.627L56.83,24.866a1.325,1.325,0,0,1,0-1.189l2.127-3.691a1.27,1.27,0,0,0-.375-1.627l-3.5-2.44a1.056,1.056,0,0,1-.5-1.064L54.89,10.6a1.129,1.129,0,0,0-1-1.251L49.7,8.661a1.277,1.277,0,0,1-.939-.751L47.194,3.969a1.241,1.241,0,0,0-1.5-.688L41.626,4.532a1.324,1.324,0,0,1-1.189-.25L37.309,1.4a1.171,1.171,0,0,0-1.627,0L32.554,4.282a1.168,1.168,0,0,1-1.189.25L27.3,3.28a1.241,1.241,0,0,0-1.5.688L24.232,7.91a1.277,1.277,0,0,1-.939.751L19.1,9.35a1.166,1.166,0,0,0-1,1.251l.313,4.255a1.336,1.336,0,0,1-.5,1.064l-3.5,2.44a1.27,1.27,0,0,0-.375,1.627l2.127,3.691a1.325,1.325,0,0,1,0,1.189L13.908,28.62a1.27,1.27,0,0,0,.375,1.627l3.5,2.44a1.056,1.056,0,0,1,.5,1.064l-.25,4.192a1.129,1.129,0,0,0,1,1.251l4.192.688A1.277,1.277,0,0,1,24.17,40.633ZM36.433,9.224A15.079,15.079,0,1,1,21.354,24.3,15.087,15.087,0,0,1,36.433,9.224ZM46.756,58.34l-2.941,3.754a.575.575,0,0,1-1-.188l-4-12.451c.063-.063.188-.125.25-.188l2.5-2.252,3.254,1a3.543,3.543,0,0,0,1.126.188,3.873,3.873,0,0,0,2.816-1.189L52.575,58.84a.533.533,0,0,1-.688.688L47.32,58.215C47.132,58.09,46.944,58.152,46.756,58.34Zm-21.273-.188-4.567,1.314a.561.561,0,0,1-.688-.688l3.817-11.825a3.98,3.98,0,0,0,2.816,1.189,3.543,3.543,0,0,0,1.126-.188l3.254-1,2.5,2.252c.063.063.188.125.25.188l-4,12.451a.571.571,0,0,1-1,.188l-2.941-3.754A.562.562,0,0,0,25.483,58.152Z" transform="translate(-13.756 -1.075)"/>
</svg>
