<svg xmlns="http://www.w3.org/2000/svg" width="35.382" height="35.381" viewBox="0 0 35.382 35.381">
  <defs>
    <style>
      .cls-1 {
        fill: #d59c3b;
      }
    </style>
  </defs>
  <g id="Group_117" data-name="Group 117" transform="translate(-745.932 -150.694)">
    <g id="Group_116" data-name="Group 116">
      <path id="Path_2432" data-name="Path 2432" class="cls-1" d="M772.99,157.011a2.074,2.074,0,1,0,2.074,2.074A2.074,2.074,0,0,0,772.99,157.011Z"/>
      <path id="Path_2433" data-name="Path 2433" class="cls-1" d="M763.768,159.671a8.714,8.714,0,1,0,8.714,8.713A8.723,8.723,0,0,0,763.768,159.671Zm0,14.295a5.582,5.582,0,1,1,5.581-5.582A5.587,5.587,0,0,1,763.768,173.966Z"/>
      <path id="Path_2434" data-name="Path 2434" class="cls-1" d="M770.686,186.075H756.56a10.64,10.64,0,0,1-10.628-10.627V161.321a10.64,10.64,0,0,1,10.628-10.627h14.126a10.64,10.64,0,0,1,10.628,10.627v14.127A10.64,10.64,0,0,1,770.686,186.075ZM756.56,154.022a7.307,7.307,0,0,0-7.3,7.3v14.127a7.307,7.307,0,0,0,7.3,7.3h14.126a7.308,7.308,0,0,0,7.3-7.3V161.321a7.307,7.307,0,0,0-7.3-7.3Z"/>
    </g>
  </g>
</svg>
