<svg xmlns="http://www.w3.org/2000/svg" width="1912.364" height="394.135" viewBox="0 0 1912.364 394.135">
  <defs>
    <style>
      .cls-1 {
        opacity: 0.15;
      }

      .cls-2 {
        fill: #deb268;
      }
    </style>
  </defs>
  <g id="Group_118" data-name="Group 118" class="cls-1" transform="translate(310.433 2.069)">
    <path id="Path_2436" data-name="Path 2436" class="cls-2" d="M303.642,34.587c-5.208,15.37-6,42.145-21.041,51.146-13.844,8.288-36.87-1.7-51.751-4.318-5.969-1.051-20.765-4.629-20.334,6.04.258,6.446,6.205,11.658,12.535,15.651a3.5,3.5,0,0,0,.463,1.166c6.419,10.336,16.2,18.384,25.786,25.662,10.056,7.643,20.583,14.663,33.367,16.416,16.234,2.226,28.431.111,42.613-6.459,7.963-3.686,15.766-10.981,24.5-10.167,6.214.583,12.286,2.11,18.451,3.014-5.342,14.342-4.652,31.538,4.238,43.979,6.032,8.435,19.136,8.084,26.517,14.743,8.885,8.021.485,23.552,3.979,33.875,2.675,7.9,7.71,17.525,14.752,21.736,9.735,5.827,24.09,2.733,30.322,13.269,6.009,10.158,6.459,23.151,11.64,33.875A80.563,80.563,0,0,0,475.8,316.569c7.576,7.443,34.4,32.317,43.552,17.885,4.549-7.167.476-22.791,1.424-30.75a76.436,76.436,0,0,1,4.816-18.927c.031.022.062.027.076-.022.027-.125.049-.249.08-.369a77.048,77.048,0,0,1,6.588-12.9c9.9-15.526,26.7-26.89,25.831-46.828-.472-10.8-7.242-21.4-7.2-32.232.045-10.808,4.945-20.24,10.336-29.312,4.95-8.328,14.979-18.148,17.707-27.554,2.9-10.02-2.3-18.874-4.264-29-2.368-12.188-6.414-24-7.977-36.345a131.038,131.038,0,0,1,1.051-38.544,25.527,25.527,0,0,0,12.041.806c-3.975,12.94,7.309,26.552,20.61,20.828a13.3,13.3,0,0,0,2.284-1.2c4.077-2.773,5.511-7.946,4.977-12.642,1.286.668,2.822,1.113,4.082,1.932a21.819,21.819,0,0,0,14.026-3.7c6.775-4.638,10.349-12.668,12.851-20.5.325.512,3.77-10.078,5.261-17.187h-6.811c-1.451,6.584-3.281,14.2-4,16.02-3.454,8.689-11.6,19.216-22.185,16.795-16-3.659-12.673-19.417-8.6-32.815h-8.863A53.619,53.619,0,0,0,591.9,15.468a32.505,32.505,0,0,0,.73,4.834c-5.124,1.607-9.708,4.407-15.228,5.1-8.529,1.059-17.77-2.782-16.942-13A27.371,27.371,0,0,1,564.913,0h-9.152A30.164,30.164,0,0,0,554,14.81c-4.923,6.949-6.205,17.658-7.029,25.965a91.549,91.549,0,0,0,1.375,27.919c4.042,19.074,18.767,34.676,23.178,53.282a48.455,48.455,0,0,1-4.42,19.5c-6.779,14.618-18.731,27.238-20.73,43.8-.013.147-.027.294-.04.445-2.6-11.818-5.35-23.592-8.453-35.361-6.17-23.405-11.774-47.438-11.587-71.791.16-20.872,4.416-41.282,14.565-59.625C543.991,13.274,547.8,6.721,550.263,0h-5.435a105.053,105.053,0,0,1-5.493,10.153A118.44,118.44,0,0,0,527.82,34.4c-5.755,17.645-7.122,36.4-5.76,54.84,1.58,21.384,6.837,42.256,12.771,62.786,4.06,14.048,7.42,28.426,11.4,42.559,1.122,15.384,7.71,30.665.717,45.582a64.636,64.636,0,0,1-7.078,11.306c3.521-8.969,4.162-19.915,3.984-28.658-.334-16.577-4.883-32.646-10.8-48.016-13.581-35.263-34.662-69.61-29.824-108.915a1.39,1.39,0,0,0-.085-.605c4.954-8.506,7.425-18.482,10.559-27.736a73.793,73.793,0,0,1,12.531-23.49C530.072,9.326,534.252,4.874,537.88,0h-5.8c-6.73,8.377-13.968,15.891-18.557,25.787.062-3.81-.089-7.674-.383-11.6-.356-4.732-.85-9.455-1.291-14.182h-4.255c.142,1.1.28,2.181.414,3.218,1.331,10.621,2.52,21.326,1.968,31.871-3.41,10.265-6.014,21-12.4,29.806-9.82,13.541-26.436,16.773-41.629,20.716-2.106.548-4.144,1.148-6.156,1.781a94,94,0,0,0,20.979-26.8c5.106-9.553,8.925-19.875,12.464-30.091,3.33-9.624,7.972-20.227,8.631-30.5H480.7a309.338,309.338,0,0,1-27.545,30.817c-10.973,7.256-21.99,14.44-33.714,20.476a240.39,240.39,0,0,1-53.865,20.124c-17.347,4.158-34.9,5.578-52.61,7.184-6.405.579-12.811,1.184-19.2,1.945a63.042,63.042,0,0,0,8.787-15.735c.036-.013.067-.018.1-.031a1.328,1.328,0,0,0,.543-1.6c1.616-4.18,3.027-8.506,4.4-12.847,4.273-4.269,7.492-10.064,11.867-14.24a89.617,89.617,0,0,1,22.47-15.286c17.329-8.506,36.447-11.9,55.45-14.222C413.55,4.612,430.928,3.325,447.634,0H409.2c-8.319.926-16.67,1.847-24.985,3.045C367.1,5.5,349.989,9.57,334.668,17.85c-6.5,3.512-14.614,8.609-21.055,14.854,4.434-10.995,10.51-20.614,21.852-26.027C342.1,3.508,349.491,2.252,356.479,0H325.316C313.867,7.9,308.08,21.491,303.642,34.587ZM585.66,31.3a1.5,1.5,0,0,0,.125-.481,26.128,26.128,0,0,0,8.44-5.408A25.676,25.676,0,0,0,607.009,39.4a11.709,11.709,0,0,1-14.538,12.157C582.438,49,581.654,39.247,585.66,31.3ZM556.353,82.2a78.8,78.8,0,0,1-5.591-35.272c.547-8.925,3.405-17.124,5.168-25.675a19.333,19.333,0,0,0,8.743,9.116,112.408,112.408,0,0,0-.183,50.95c2.506,11.351,5.951,22.59,6.846,33.812C567.98,103.809,561.12,93.6,556.353,82.2ZM257.313,129.24c-8.751-6.067-17.752-13.007-25.105-21.05.659.338,1.3.663,1.883.961,14.333,7.4,29.143,12.686,45.4,13.051a141.278,141.278,0,0,0,35.709-4.224c-6.659,4.736-13.26,9.486-20.952,12.74-10.109,4.282-18.954,4.5-29.081,3.281A72.443,72.443,0,0,1,257.313,129.24Zm-9.375-21.8a106.456,106.456,0,0,0,20.948,1.754c21.077-.236,42.452-2.729,63.547-5.546q-7.632,2.417-15.41,4.42c-19.982,5.141-41.74,8.529-61.8,1.985C252.795,109.258,250.364,108.372,247.938,107.437Zm54.44,30.2a42.963,42.963,0,0,1-28.181.147c16.118.3,33.412-10.269,45.444-20.917a306.836,306.836,0,0,0,29.33-9.455q4.427-1.643,8.8-3.423-1.7,1.436-3.436,2.764c-8.515,6.468-18.522,11.533-25.991,19.243C319.542,129.177,311.4,134.426,302.378,137.639ZM425.644,239.69c-6.17-2.577-12.557-6.5-15.713-12.677a14.327,14.327,0,0,1-1.077-2.813c3.953-19.826,10.527-39.225,20.552-56.8a151.514,151.514,0,0,1,19.256-26.476,144.115,144.115,0,0,1,11.849-11.7c2.016-1.763,4.345-3.267,6.379-5-.757,5.083-1.362,10.194-1.829,15.281-.579,6.267-.895,12.557-1.015,18.856a61.824,61.824,0,0,1-3.436,7.376c-6.161,11.164-14.97,20.73-21.562,31.644-7.349,12.161-13.728,29.721-8.849,44.081C428.676,240.892,427.153,240.318,425.644,239.69Zm6.641-86.85c.881-1.66,1.758-3.321,2.684-4.954,10.042-17.721,23.16-31.983,36.594-46.85-.565,2.279-1.09,4.54-1.6,6.735-.721,3.125-1.34,6.281-1.91,9.446-4.144,1.006-7.674,4.941-10.866,7.679a143.014,143.014,0,0,0-11.965,11.556A140.643,140.643,0,0,0,432.285,152.841ZM455.272,263.06a34.658,34.658,0,0,0-7.1-11.783c-3.868-4.042-8.631-6.267-13.6-8.186-2.359-10-2.377-18.86,1.318-29.245,3.926-11.026,10.732-20.654,17.258-30.251a102.66,102.66,0,0,0,10.839-19.666,270.208,270.208,0,0,0,2.613,36.826c-2.786,4.429-3.975,11.062-5.261,15.4a153.23,153.23,0,0,0-4.985,22.911A128.823,128.823,0,0,0,455.272,263.06Zm3.365,11.155c-.454-1.781-.926-3.579-1.447-5.373a137.486,137.486,0,0,1,2.6-29.29,195.487,195.487,0,0,1,5.809-22.826c.7-2.172,1.607-4.349,2.475-6.543,1.019,5.849,2.239,11.662,3.61,17.44a73.9,73.9,0,0,0,3.806,62.336c5.355,9.9,11.444,17.939,11.52,29.543C471.964,308.548,463.32,292.648,458.637,274.215ZM494.764,324.4a68.414,68.414,0,0,1-6.459-3.979c3.352-14-10.559-27.692-15.09-39.919a73.231,73.231,0,0,1-.441-48.457,308.721,308.721,0,0,0,9.174,29.757c3.574,9.811,7.652,19.439,12.112,28.88,5.787,12.246,12.13,23.156,14.556,36.652a3.889,3.889,0,0,0,.712,1.469C504.646,329.625,498.535,326.447,494.764,324.4Zm19.791.174a7.873,7.873,0,0,1-1.745,2.519c.436-9-4.385-17.908-8.32-25.689-4.959-9.8-9.677-19.7-13.8-29.891a317.307,317.307,0,0,1-15.046-46.886c.1-.223.187-.445.289-.668a1.879,1.879,0,0,0-.872-2c-.962-4.313-1.847-8.644-2.6-13.007-.6-3.454-1.095-6.922-1.558-10.394,0-.031.009-.062.009-.093a1.039,1.039,0,0,0-.049-.231,268.91,268.91,0,0,1-2.212-27.6c5.217,10.928,12.865,20.636,18.553,31.364a256.124,256.124,0,0,1,15.045,34.315c7.02,19.768,11.289,40.307,14.249,61.041a81.03,81.03,0,0,0-1.153,13.452C515.343,315.131,516.4,320.5,514.555,324.577Zm-17.36-251.3a39.342,39.342,0,0,0,3.388-4.06c-2.689,30.937,10.754,59.915,22.84,87.722,7.425,17.075,14.623,34.582,17.138,53.171a98.182,98.182,0,0,1,.378,25.008c-.979,8.039-3.8,15.126-6.014,22.733-1.006,1.286-2,2.573-2.969,3.873-1.082,1.46-2.106,2.951-3.1,4.46,3.138-28.907-1.669-59.176-10.167-86.538-5.141-16.572-12.392-32.361-18.308-48.653a173.747,173.747,0,0,1-7.95-27.571c-1.509-8.19-1.14-16.363-1.976-24.54A40.215,40.215,0,0,0,497.195,73.278Zm-10.745,7.99c-2.043,12.1,2.453,26.962,5.742,37.783,5.155,16.951,12.615,33.06,18.66,49.686,12.174,33.447,15.068,67.584,14.863,102.6a78.419,78.419,0,0,0-6.437,14.578c-.418,1.3-.788,2.6-1.139,3.913a215.527,215.527,0,0,0-12.183-55.187,247.971,247.971,0,0,0-15.281-34.44c-5.711-10.63-12.032-22.982-21.153-31.061-.4-.352-.7-.329-.9-.134-.151-7.376-.014-14.765.463-22.141A275.552,275.552,0,0,1,473,114.955c1.838-10.015,4.7-20.16,5.925-30.287A64.368,64.368,0,0,0,486.449,81.268Zm-15.2,5.934c1.874-.552,3.739-1.135,5.573-1.776a75.07,75.07,0,0,0-4.616,13.109c-16.221,12.085-29.094,30.167-39,47.451A193.506,193.506,0,0,0,420.245,173.4c-.8,2.092-1.625,4.255-2.439,6.463a140.674,140.674,0,0,0-9.575,37.988c.089-2.911.516-5.867.619-8.778a27.265,27.265,0,0,0-3.1-14.369c3.672-20.748,10.14-41.482,20.071-59.959a127.762,127.762,0,0,1,20.814-28.751C454.1,98.343,463.093,93.589,471.252,87.2ZM452.721,92.24c.766-.227,1.545-.45,2.319-.663a126.848,126.848,0,0,0-10.541,9.7,128.753,128.753,0,0,0-20.832,28.355,156.193,156.193,0,0,0-18.758,63.645,26.633,26.633,0,0,0-5.4-6.049c-8.409-7.024-17.854-10.47-22.987-20.97-4.856-9.94-6.552-15.784-2.893-26.1.116-.325,5.586-2.328,5.577-2.715,13.341.187,20.481-9.846,31-18.4C423.872,107.931,435.5,97.359,452.721,92.24Zm30.7-82.968c-1.464,4.794-2.617,9.744-4.14,14.155A278.574,278.574,0,0,1,467.5,52.673c-7.184,15.077-17.739,26.454-28.319,38.713a86.384,86.384,0,0,0-19.991,12.281c-2.466,2.016-4.937,4.158-7.443,6.3,3.686-4.011,7.34-8.039,11.066-11.872,9.232-9.508,18.736-18.878,27.358-28.951C462.425,54.822,473.282,37.418,475.8,18.4Q479.734,13.948,483.422,9.272Zm-9,10.656c-4.914,19.412-15.157,36.145-28.969,51.11-8.529,9.241-17.6,17.983-26.539,26.824-7.968,7.888-16.915,15.713-24.024,24.527a39.836,39.836,0,0,1-14.876,5.012c-12.21,1.384-24.042-3.61-36.171-4.082a35.2,35.2,0,0,0-4.242.116c7.149-3.472,13.772-8.52,19.9-13.109,6.174-4.625,12.922-9.535,18.339-15.379,13.683-6.753,25.3-16.612,37.836-25.31C436.937,54.88,457.275,38.98,474.422,19.929ZM319.133,84.811c17.832-1.509,35.335-3.855,52.615-8.68,19.319-5.4,39.136-13.189,57.03-23.81a303.314,303.314,0,0,1-88.844,48.84c-20.77,1.358-41.464,3.5-62.247,4.692-11.551.663-23.325.61-34.569-2.466-10.145-2.773-17.632-7.71-25-14.494.285-.058.619-.116,1.059-.183a15.517,15.517,0,0,1,5.524-.2c6.6.984,13.091,2.644,19.688,3.672,12.944,2.016,29.285,4.011,40.872-3.628,2.092-.383,4.166-.743,6.21-1C300.664,86.378,309.9,85.594,319.133,84.811Z" transform="translate(656.289 10)"/>
    <path id="Path_2437" data-name="Path 2437" class="cls-2" d="M304.046,10.6a4.052,4.052,0,0,0,2.3-.2,11.084,11.084,0,0,0,1.229-.739,2.4,2.4,0,0,0,.961-2.439,5,5,0,0,0-.917-2.337,3.589,3.589,0,0,0-2.9-1.616,4.072,4.072,0,0,0-2.831.361,3.118,3.118,0,0,0-.868,3.637,6.794,6.794,0,0,0,.939,1.821A3.926,3.926,0,0,0,304.046,10.6Z" transform="translate(1037.906 11.011)"/>
    <path id="Path_2438" data-name="Path 2438" class="cls-2" d="M296.693,8.473l.085-.1c1.238-1.491.093-4.046-1.122-5.137a3.612,3.612,0,0,0-.378-.312,2.194,2.194,0,0,0-1.99-.632,1.623,1.623,0,0,0-1.122,1.54c-.009.4-.009.806.014,1.206.1,1.816,1.651,3.81,3.53,3.89A1.245,1.245,0,0,0,296.693,8.473Z" transform="translate(1008.103 7.681)"/>
    <path id="Path_2439" data-name="Path 2439" class="cls-2" d="M296.79,9.133c-3.343,1.625.476,9.139,3.859,7.492C303.988,15,300.173,7.481,296.79,9.133Z" transform="translate(1019.624 30.707)"/>
    <path id="Path_2440" data-name="Path 2440" class="cls-2" d="M301.657,4.347c-2.693,3.067-3.61,8.195-.993,11.547.276.352.788.316.73-.209-.347-3.263-.374-6.468,2.008-9.067a7.766,7.766,0,0,1,8.173-2.19,6.992,6.992,0,0,1,4.874,9.018c-.913,2.8-3.3,4.95-5.529,6.739-.147.12,0,.383.165.4,4.514.347,7.452-3.659,7.879-7.9a10.483,10.483,0,0,0-5.6-10.1A9.446,9.446,0,0,0,301.657,4.347Z" transform="translate(1032.073 4.547)"/>
    <path id="Path_2441" data-name="Path 2441" class="cls-2" d="M301.589,18.411c-3.873-.548-8.284-.948-9.53-5.48a8.276,8.276,0,0,1,5.377-9.86c4.064-1.206,8.778.837,10.015,5.021,1.251,4.22-1.322,8.279-4.536,10.8-.053.045,0,.187.071.174,5.052-1.122,7.5-6.837,6-11.618A10.443,10.443,0,0,0,296.626.784c-5.1,1.4-7.554,7.242-6.285,12.134,1.166,4.482,6.949,9.4,11.631,6.726C302.426,19.382,302.025,18.474,301.589,18.411Z" transform="translate(1000.683 1.575)"/>
    <path id="Path_2442" data-name="Path 2442" class="cls-2" d="M308.239,18.482c-.031.093.1.276.174.156a7.421,7.421,0,0,0-5.635-10.817c-5.471-.7-10.122,5.181-7.22,10.189.2.347.717.494.69-.062-.156-3.672,1.251-7.478,5.31-8.168C306.681,8.9,309.757,13.915,308.239,18.482Z" transform="translate(1016.748 26.797)"/>
    <path id="Path_2443" data-name="Path 2443" class="cls-2" d="M244.31,166.1c1.015.051,1.985.1,2.949.172a10.373,10.373,0,0,0,3.16-4.557c.051-.2.089-.4.134-.6a71.42,71.42,0,0,0,1.717-8.477c.913-3.932.543-7.992.983-12.211.332-3.14,1.085-7.041,3.006-9.651l.045-.038a51.012,51.012,0,0,0,18.881-2.368,16.431,16.431,0,0,0,4.468-2.055c2.566-1.8,5.623-3.8,7.066-6.587a6.74,6.74,0,0,0,.287-5.866,12.976,12.976,0,0,0-5.866-7.666,30.548,30.548,0,0,0-7.092-2.6c1.13-.16,2.26-.268,3.389-.383a37.961,37.961,0,0,1-9.224-6.083,75.5,75.5,0,0,0-9.734,3.268q-4.04-1.005-8.094-2.011a81.624,81.624,0,0,1,14.758-4.328c-.274-.3-.517-.619-.779-.926-.345-.243-.683-.492-1.034-.721-4.832-3.23-9.964-2.47-15.051-3.543a59.258,59.258,0,0,0-8.126,4.909c.989-2.3,1.806-4.717,2.623-7.1a14.551,14.551,0,0,1-1.857-1.417c-.4,1.066-.791,2.126-1.194,3.192.16-1.309.274-2.649.364-4-3.166-3.287-4.9-7.858-6.281-12.268a70.587,70.587,0,0,0-12.16-23.1,7.424,7.424,0,0,1-1.06-1.794c-.4-.1-.772-.2-1.174-.287-6.523-1.3-11.387,4.047-13.653,9.747a21.64,21.64,0,0,0-.887,2.815c-2.745-.172-5.489-.274-8.234-.37-5.375-.185-5.183,0-3.568-5.189,2.036-6.555,4.366-13.009,5.074-19.9.606-5.86-1.245-18.6-10.155-15.262-5.719,2.138-10.762,11.477-13.787,16.232-.989,1.557-2,3.166-2.981,4.806a5.707,5.707,0,0,0-2.043-1.947c2.1-6.338,3.817-12.785,3.906-19.462.115-8.406-7.149-20.33-17.1-14.164-7.979,4.947-5.917,20.387-5.011,27.894a97.594,97.594,0,0,0,2.157,12.121c-5.2-3.409-10.577-6.568-15.958-9.472-4.692-2.528-11.9-7.487-17.464-5.023-7.238,3.2-7.047,13.436-4.538,19.4,3.945,9.364,12.236,17.177,21.109,23.094-8.764,1.4-17.8,3.575-24.383,7.87-4.826,3.147-12.606,11.464-12.689,17.687-.223,17.438,37.839,6.026,55.686-.67-7.194,13.034-17.943,34.992-2.457,37.615-5.949.447-11.336,2.036-14.387,5.636-9.1,10.73,10.749,15.281,20.892,17.707-8.917,10.066-27.53,31.06-15.977,38.26,4.015,2.5,8.458-.677,11.56-2.974,7.666-5.668,14.381-13.851,20.981-21.4-.4,3.543-.319,7.2-.8,10.717-.134.964-1.813,6.147-1.672,6.747.753,3.128,5.77,8.406,9.006,8.381a7.5,7.5,0,0,0,3.53-1.13c9.772-5.445,11.815-17.707,11.362-27.951.089,2.055,10.06,7.232,11.924,7.845a16.839,16.839,0,0,0,13.424-1.187,11.162,11.162,0,0,0,5.509-8.106c-1.7-6.453-6.134-10.411-11.355-14.77-5.049-4.213-10.966-7.213-16.168-11.2A121.568,121.568,0,0,0,217.8,122.55c.479,2.017,1.047,3.989,1.66,5.943-.172.332-.338.664-.511.989-5.4,1.909-11.4,4.219-13.717,9.555-1.117,2.592-1.334,3.906,1.411,4.545,3.836.894,7.258-2.789,9.523-5.949a1.951,1.951,0,0,1,.37.281c-1.072,3.294-1.851,6.7-.9,8.221,1.775,2.853,8.03-5.177,3.817-9.319q.613-2.26,1.289-4.5c-1.187,3.919,7.366,15.434,9.517,18.613,1.851,2.732,9.345,14.738,12.855,15.077C243.512,166.044,243.914,166.082,244.31,166.1Zm-27.568-32.994c-.485.721-.964,1.443-1.481,2.113-1.213,1.557-3.836,5.2-6.1,5.075-2.86-.153-.868-1.653.926-3.313A21.876,21.876,0,0,1,216.742,133.107Zm-42.677,26.3c2.068-1.111,4.219-2.011,6.383-2.911a20.782,20.782,0,0,1-1.251,2.387c-.319.517-.766,1.187-1.289,1.909-.549.6-1.628,1.883-3.045,3.568a7.886,7.886,0,0,1-3.523,2.26c-1.264,1.238-1.94.74-2.036-1.506-1.36-1.277-1.417-2.164-.172-2.674C169.941,161.206,172.769,160.108,174.065,159.412Zm7.519-.032c.262-.447.5-.906.74-1.366a11.725,11.725,0,0,0,.466,2.279A1.716,1.716,0,0,0,181.584,159.38Zm5.489-8.126a22.3,22.3,0,0,1,3.766,4.57c-1.755,1.309-3.038,4.085-2.528,5.713.07.2.121.421.191.626a5.85,5.85,0,0,1-1.117-.555,5.3,5.3,0,0,1-1.915-2.157c-1.047-2.068-.881-4.449-.894-6.709C185.433,152.269,186.269,151.765,187.073,151.254Zm7.028,4.258a2.786,2.786,0,0,0-.364-.134,20.88,20.88,0,0,0-3.983-5.923c.983-.7,1.864-1.334,2.572-1.838.575-.4,1.117-.836,1.685-1.257a2.609,2.609,0,0,0,.913,1.864c3.223,2.7,24.511,17.221,22.085,21.868C216.653,170.774,196.035,156.827,194.1,155.512Zm-11.011,6.179a3.493,3.493,0,0,0-.083-.772,7.157,7.157,0,0,0,1.245,2.119,6.406,6.406,0,0,0,5.087,2.151,30.61,30.61,0,0,1,1.066,7.283c.038,4.347-5.26,19.992-8.247,11.521C180.263,178.606,182.848,167.384,183.09,161.691Zm-34.526-17.962c6.46-1.781,14.624-.8,21.479.964-.836,3.083-.747,6.045,1.206,8.324a6.458,6.458,0,0,0,4.628,2.3c-3.945,1.711-7.845,4.015-10.366,6.919-2.023,2.323-3.8,6.741-.083,8.5a5.273,5.273,0,0,0,4.009.051c-6.326,7.4-14.055,15.977-16.1,15.651-9.843-1.564-.038-10.6,1.8-13.034l12.351-16.411c1.251-1.653,1.711-4.743-.67-5.56-4.915-1.7-10-2.362-14.949-3.862C144.282,145.273,143.216,145.2,148.565,143.729Zm34.883-2.853c-4.366-3.185-2.157-3.894.76-7.851a94.524,94.524,0,0,1,8.158-9.689c.6-.619,1.238-1.181,1.851-1.774,2.828,4.736,10.966,1.532,14.949.045.785-.294,1.557-.619,2.33-.951C203.318,131.167,190.073,145.7,183.448,140.876Zm40.5-27.76c.338-.281.683-.555,1.015-.849l-.728,2.221C224.14,114.028,224.031,113.575,223.948,113.116Zm-6.817-17.094c2.113.121,4.551,4.213,5.572,5.809a25.175,25.175,0,0,1,2.757,6.058,31.892,31.892,0,0,1-4.768-3.313C220.093,104.039,211.986,95.735,217.131,96.022Zm-4.513,4.168a3.566,3.566,0,0,0-1.066-.14c-5.03.057-32.158-5.706-26.222-14.719,2.834-4.3,9.236.268,13.66,2.081,4.9,2,9.606,4.283,14.285,6.709C211.718,95.881,211.68,98,212.618,100.19Zm-1.143,8.055a7.552,7.552,0,0,0,2.866-5.17,30.98,30.98,0,0,0,7.34,6.753,6.708,6.708,0,0,0-4.149,2.54c-.16.243-.351.517-.549.811a28.729,28.729,0,0,0-8.132-1.6,7.1,7.1,0,0,0,1.238-2.426C210.557,108.852,211,108.539,211.476,108.245ZM215,115.994c-.281.389-.581.791-.887,1.213a25.336,25.336,0,0,1-10.411,3.262c-.645.128-1.289.262-1.94.389a12.868,12.868,0,0,1-3.236-3.211c1.015-.855,2.023-1.723,3.07-2.54a25.684,25.684,0,0,1,6.741-.485A25.207,25.207,0,0,1,215,115.994Zm-38.471,1.621a81.466,81.466,0,0,0,12.747-.543,102.911,102.911,0,0,0-10.449,12.332c-1.238,1.711-3.313,4.423-5.189,7.487a77.808,77.808,0,0,0-14.853-2.151C166.718,133.184,172.546,126.137,176.529,117.616Zm3.045-7.806a82.6,82.6,0,0,0,2.438-9.4,47.2,47.2,0,0,0,17.2,7.43A72.166,72.166,0,0,1,179.573,109.809Zm-9.83-21.051a27.921,27.921,0,0,1-3.683,9.887c-1.417,3.9-3.121,4.117-5.113.74,1.008-1.679,2.011-3.306,2.943-4.87.14-.153.268-.326.408-.479A70.7,70.7,0,0,1,169.743,88.758Zm4.6-3.817a14.03,14.03,0,0,0,1.94,9.4,47.923,47.923,0,0,1-4.226,16.736q-1.886,3.37-3.772,6.753-18.814,3.188-13.347-5.164a25.342,25.342,0,0,1,2.432-6.823c1.858,1.838,4.883.428,6.721-1.111,5.043-4.2,7.6-11.624,8.547-17.853a1.721,1.721,0,0,0,0-.574C173.2,85.847,173.758,85.388,174.339,84.941ZM122.362,84.3a164.181,164.181,0,0,1,26.5-5.349c1.679-.211,4.251-2.962,4.781-5.3.147.064.313.14.453.2a35.891,35.891,0,0,0,15.543,2.815,44.557,44.557,0,0,1-6.319,4.513c-5.26-2.2-12.843-2.687-18.026-1.13-2.885.868-6.734,4.06-3.492,7.028,3.587,3.281,12.172.715,16.092-.6a35.389,35.389,0,0,0,5.266-2.3c.134.026.268.057.4.083.549.1,1.238-.53,1.532-1.187a28.989,28.989,0,0,0,7.6-6.7c.46-.064.919-.153,1.379-.236.16.326.275.683.453,1,.645,1.168,2.126-.709,2.075-1.64a2.251,2.251,0,0,0,.811-1.015c.1.843.191,1.692.377,2.528a13.328,13.328,0,0,0-2.643,4.647,70.953,70.953,0,0,0-8.451,6.811c.077-2.151-1.245-4.245-3.823-3.045-12.945,6.026-32.215,14.119-46.871,11.649C101.285,94.586,115.041,86.466,122.362,84.3Zm28.468.957c-.874.077-5.081.709-5.4-.064-1.436-3.409,4.494-2.923,5.853-2.923a35.774,35.774,0,0,1,7.66,1.028A29.16,29.16,0,0,1,150.83,85.254Zm.4-16.615c-2.955-2.2-2.821-6.6,1.877-5.745a20.5,20.5,0,0,1,6.747,2.987,32.384,32.384,0,0,1,8.464,7.947C162.237,73.547,156.128,72.27,151.233,68.638Zm9.606-28.673c-.53-2.062-.957-4.1-1.328-6.032a78.365,78.365,0,0,1-1.423-15c.013-1.857.268-3.7.306-5.54a2.959,2.959,0,0,1,.128-.619,15.744,15.744,0,0,1,3.849,1.04,7,7,0,0,1,2.355,3.983c1.066,4-.089,8.719-1.015,12.638C162.946,33.678,161.911,36.825,160.839,39.966ZM158.088,58.9a2.62,2.62,0,0,0,1.545.319,22.428,22.428,0,0,0,3.313,3.587,1.788,1.788,0,0,0,1.609,1.226,18.189,18.189,0,0,0,2.579,1.513,3.448,3.448,0,0,0,3.606-.811,43.88,43.88,0,0,0,2.3,9.16c-.294.006-.587,0-.881.006a1.168,1.168,0,0,0-.128-.6c-3.632-6.2-10.3-12.16-17.566-13.526-3.645-.689-7.8.357-8.751,4.417A5.243,5.243,0,0,0,145.9,67.2,66.2,66.2,0,0,1,128.9,53.045c-1.028-1.213-10.334-13.858-8.706-15.077,1.149-.862,6.479,2.5,7.787,3.147C138.467,46.247,147.92,53.236,158.088,58.9Zm11.47-16.168a73.127,73.127,0,0,0-3.626,7.206c-.2-.332-.383-.67-.568-1.009.753-2.183,1.532-4.366,2.3-6.562C168.6,42.008,169.233,42.13,169.558,42.73Zm15.587,12.492a5,5,0,0,0-1.436.44c-3.421,1.647-5.055,6.5-5.866,9.894a25.112,25.112,0,0,0-.619,7.117,43.736,43.736,0,0,0-3.951-10.43c-.089-.53-.16-1.066-.236-1.609a2.6,2.6,0,0,0-.153-1.021c-.019-.211-.07-.4-.089-.613a79.166,79.166,0,0,1,.14-10.155,91.8,91.8,0,0,1,6.306-10.379,84.635,84.635,0,0,1,6.287-8.3c.491-.562,1.787-2.585,2.521-2.674,2.917-.338,2.311,7.864,2.119,9.728C189.537,43.362,187.412,49.521,185.146,55.221ZM182.733,73.93a10.952,10.952,0,0,0-2.266.919,23.269,23.269,0,0,1-.53-4.819c.006-2.426.4-7.379,2.189-9.224.262-.881.7-1.347,1.289-1.443-.792,2.1-1.251,4.321-.191,6.294a4.668,4.668,0,0,0,1.538,1.66C184.067,69.519,183.378,71.715,182.733,73.93Zm19.073-5.049a3.834,3.834,0,0,0,2.662-1.379,44.5,44.5,0,0,0,4,12.453c-7.66-3.779-16.6-7.321-23.49-6.485.606-1.723,1.206-3.453,1.781-5.189C191.235,69.762,198.237,68.817,201.806,68.881Zm28.6,26a20.846,20.846,0,0,1-2.93-5.7,15.758,15.758,0,0,1-.983-5.987q-.613-4.519,5.936-3.983c.07.689.134,1.385.166,2.087a21.524,21.524,0,0,1-.389,3.677C231.736,88.279,231.065,91.579,230.408,94.879Zm-1.819,11.445c-.057.07-.1.153-.153.23l-.447.409-.077-.006a23.25,23.25,0,0,0-5.164-10.577,16.581,16.581,0,0,0-2.891-2.7c1.487-1.6,2.4-3.977,1.94-5.713-1.6-6-4.449-10.877-6.836-16.532-3.6-8.566-1.947-18.3,7.4-11.2a24.788,24.788,0,0,1,8.911,12.919,5.017,5.017,0,0,0-2.349.236c-4.213,1.385-5.2,7.219-5.183,10.96a22.758,22.758,0,0,0,5.809,15.128Q228.94,102.89,228.589,106.324Zm6.677-1.589c-1.392.434-2.592.843-3.511,1.168l-.332-.1a.918.918,0,0,0-.689.147c.211-.74.415-1.494.613-2.253a2.7,2.7,0,0,0,.523.2C233,104.173,234.136,104.454,235.266,104.735Zm15.153,3.74a17.308,17.308,0,0,1-5.234.357q-1.924-.115-3.83-.4a37.845,37.845,0,0,1-4.653-1.066c1.519-.409,3.045-.8,4.589-1.111l.07-.013Q245.89,107.352,250.419,108.475Zm13.066,12.69a40.531,40.531,0,0,1-8.732-.409c-.587-1.1-1.781-1.13-3-.568a50.971,50.971,0,0,1-12.734-4.794,3.151,3.151,0,0,0-.5-.185c-1.053-1.43-2.451-2.719-3.562-4-.383-.44-.753-.887-1.13-1.34,6.351,2.279,17.138,4.347,20.2-.543,5.866,1.245,15.255,1.979,19.73,4.992C282.047,119.888,268.527,120.846,263.485,121.165Zm-30.051-6.7c.377.434.977,1.009,1.583,1.634a8.243,8.243,0,0,0-2.521,3.377,5.8,5.8,0,0,1-1.123-1.743,12.752,12.752,0,0,1-.147-5.732C231.965,112.822,232.719,113.639,233.434,114.462Zm10.487,38.222a74.7,74.7,0,0,1-18.549-33.2q1.283-3.6,2.26-7.328c.747-.5,1.27-1.672.721-2.3a.576.576,0,0,0,.026-.179c-.006-.083-.032-.16-.038-.243.121.326.472.249.817.032.236.326.485.645.74.964a1.747,1.747,0,0,0-.549.76c-.881,3.511-1.468,7.685.9,10.775a5.507,5.507,0,0,0,3.875,2.209l.185.1C240.423,133.044,244.017,142.516,243.921,152.684Z" transform="translate(150.08 11.96)"/>
    <path id="Path_2444" data-name="Path 2444" class="cls-2" d="M110.851,10.684l.008.014v-.041Z" transform="translate(382.346 36.778)"/>
    <path id="Path_2445" data-name="Path 2445" class="cls-2" d="M119.994,18.945l.013.071a.493.493,0,0,1-.009-.085Z" transform="translate(413.9 65.34)"/>
    <path id="Path_2446" data-name="Path 2446" class="cls-2" d="M189.956,32.717c-.147-.312-.254-.641-.4-.953C189.462,31.636,189.537,31.832,189.956,32.717Z" transform="translate(653.862 109.507)"/>
    <path id="Path_2447" data-name="Path 2447" class="cls-2" d="M40.332,30.02c8.235,18.549,3.717,40.525,10.176,59.55,15.548,45.831,57.68,35.317,90.972,60.93,19.568,15.063,24.838,36.982,52.085,44.166,21.411,5.649,36.109-.637,56.941-4.919,41.028-8.44,102.082,32.65,140.844,12.339,26.957-14.128,5.987-21.331-9.4-39.71-17.8-21.264-13.323-37.9-22.025-60.988-3.975-10.541-10.26-18.745-17.009-26.379.231.022.659-.147.4-.325-.481-.325-.966-.57-1.451-.886-11.533-12.869-24.18-24.309-29.1-42.746A261.835,261.835,0,0,1,306.846,0h-11.7c1.371,13.118,2.867,26.169,7.055,38.615C289.379,27.425,278.665,13.772,267.9,0h-6.21c12.829,15.117,25.675,29.98,41.357,40.854a80.07,80.07,0,0,0,6.615,14.039c1.086,1.8,2.239,3.192,3.365,4.727-16.879-5.809-34.435-8.337-53.95-11.329C218.287,42.034,189.015,24.246,159.85,0h-23.4a320.011,320.011,0,0,0,16.692,29.356,242.064,242.064,0,0,0,15.135,20.369c.592,24.433,1.767,50.527,9.228,73.233,8.195,24.95,19.1,55.993,44.184,67.749a52.073,52.073,0,0,1-15.709-.04c-53.91-8.992-33.679-22.074-51.622-39.274C152.982,94.061,116.975,48.751,90.125,0H79.98c.73,1.309,1.46,2.622,2.2,3.926C84.44,16.443,90.752,27.95,93.2,40.725c2.324,12.121,1.1,23.285-.245,35.513-1.273,11.6-5.925,32.526.7,44.785a76.12,76.12,0,0,1-17.187-10.808C97.843,73.665,86.381,36.563,72.533,0H69.657C83.225,35.936,94.1,71.1,75.769,109.636,67.2,102.051,60.408,91.488,56.343,75.125,51.474,55.508,51.674,40.859,45.5,25.764,45.62,16.848,43.417,8.328,40.288,0H34.55c2.27,5.315,4.385,10.714,6.219,16.252a78.231,78.231,0,0,0-5.426-7.888c-2.422-3.107-4.83-5.853-7.2-8.364H10.8C21.908,8.912,33.415,14.431,40.332,30.02ZM258.683,182.994c-12.179-13.648-27.189-25.128-38.664-39.933C203.157,121.3,195.95,95.08,186.487,69.717c3.614,3.561,7.171,7.207,11,10.527,6.036,9.588,13.75,17.3,19.11,27.7,6.29,12.21,13.439,23.436,23.69,32.953,16.047,14.89,35.611,26.592,52.281,40.85C281.144,180.546,269.994,181.667,258.683,182.994Zm122.006,15.063c-25.03,12.78-59.252-11.524-82.639-15.709-.779-.138-1.54-.142-2.315-.254-13.826-15.891-31.952-28.3-47.26-42.332a76.747,76.747,0,0,1-12.949-16.069c13.087,10.185,29.575,18.362,38.936,22.915,21.162,10.287,41.664,21.282,64.9,25.982,18.4,3.726,36.732,2.76,54.271,9.788C394.755,187.343,391.7,192.44,380.689,198.057Zm11.56-18.518c-7.808-4.669-16.092-6.374-25.858-8.137-22.145-3.988-41.807-7.4-62.563-17.04-30.086-13.973-51.426-29.851-74.359-50.981,5.716,3.539,11.284,7.216,17.382,10.4C281.465,131.87,366.534,148.3,392.249,179.54ZM156.716,11.885c-.076-.089-.24-.107-.338-.178-1.1-1.861-2.239-3.686-3.321-5.573,19.292,18.94,44.389,34.649,68.746,41.66,31.983,9.21,64.851,9.17,96.336,18.063,12.548,13.283,26.165,17.471,34.872,40.489-30.078-15.1-61.793-25.413-95-32.334C217.419,65.55,182.721,43.872,156.716,11.885Zm20.81,30.282c16.185,13.06,36.14,23.338,51.92,29.365,31.382,11.983,67.273,14.169,99.389,25.435,8.319,2.92,16.154,6.833,24.38,9.9.427,1.148.921,2.03,1.318,3.272,4.3,13.43,1.487,27.344,9.419,40.369.472.779,1.059,1.531,1.629,2.288-33.83-20.427-84.023-30.113-111.9-44.86A228.628,228.628,0,0,1,213.342,80.68c9.9,2.947,19.844,4.776,26.508,6.178,38.869,8.173,78.023,10.425,113.727,29.339.41.214,1.518-.018,1.237-.663-.218-.512-.441-1.024-.663-1.531-.08-.191-.543-.134-.579.071,1.594-10.024-67.736-21.981-73.189-22.9-25.11-4.224-53.064-7.122-76.171-18.8a245.32,245.32,0,0,1-25.969-28.186C178.012,43.507,177.8,42.822,177.526,42.167ZM179.8,91.9c-.926-8.364.414-18.473.7-28.319.4.427.819.832,1.224,1.255-.107.165-.258.316-.227.525,6.584,48.693,38.4,88.59,75.379,117.84l-.236.027c-11.186,1.3-21.549,5.284-32.406,7.122C195.438,173.366,182.993,120.773,179.8,91.9ZM97.932,58.811c.458-16.345-4.905-30.465-9.873-45.119C100.042,33.4,113.2,52.472,123.7,73.037c11.925,23.374,16.118,48.64,23.868,72.939-17.222-11.649-35.094-16.586-50.683-23.507C87.151,106.885,97.487,74.715,97.932,58.811Z" transform="translate(-273.459 28.478)"/>
    <path id="Path_2448" data-name="Path 2448" class="cls-2" d="M83.474,120c1.887,17.641-5.328,41.028,4.344,56.839.107.174.57.116.476-.12-7.474-18.985.24-44.438-2.39-64.615C82.067,82.625,67.676,55.517,52.769,30.536,46.661,20.3,40.705,10.189,35.106,0H33.294a139.682,139.682,0,0,0,13.87,29.463C64.159,57.378,79.917,86.819,83.474,120Z" transform="translate(114.67)"/>
    <path id="Path_2449" data-name="Path 2449" class="cls-2" d="M123.377,43.619C129.181,54.4,138.382,62.1,147.712,69.6c20.476,16.47,31.787,23.316,45.564,44.682,5.435,8.431,19.831,40.111,31.8,35.624,10.1-3.788,27.033-46.89,33.185-57.974,9.027-16.274,10.563-25.168,6.949-43.957-4.126-21.46-2.711-21.429-1.87-40.752.111-2.542.3-4.932.485-7.224H253.066a34.238,34.238,0,0,1-1.643,10.616c-3.165-3.672-7.7-8.515-9.8-10.616H238.2a48.782,48.782,0,0,1,10.007,8.631c1.019,1.14,1.932,2.337,2.876,3.512a28.207,28.207,0,0,0-.427,6.566c.062,1.985.245,3.944.41,5.911A154.194,154.194,0,0,0,232.23,0h-8.364a210.4,210.4,0,0,1,28,32.294c.223,1.754.432,3.5.681,5.248-.543-.174-1.1-.312-1.62-.539a46.163,46.163,0,0,1-13.439-9.1,76.865,76.865,0,0,1-5.947-6.508c-.886-2.332-1.562-4.62-2.6-6.98-2.1-4.781-4.309-9.6-6.592-14.413h-9.659c2.284,4.429,4.509,8.871,6.624,13.309,19.7,41.38,12.094,77.173,5.858,118.258-1.349,1.456-2.537,2.4-3.436,2.519-6.811.895-12.085-6.2-16.706-15.077.045-1.447-.085-2.947-.018-3.979.628-9.553,3.2-13.087,5.987-20.409,2.5-6.57,5.546-13.007,7.434-19.808,3.864-13.893,3.485-26.882,1.055-40.819A198.239,198.239,0,0,0,210.734,0H202c2.56,15.86,1.3,31.831-7.229,48.159-3.129,6-13.421,20.24-15.535,31.328q-3.839-2.871-7.91-5.4c.191-4.113-.913-10.194-.65-13.082.864-9.437,4.442-18.072,7.527-26.846,3.944-11.217,7.567-22.346,8.422-34.159h-2.747c-.111,1.789-.263,3.6-.5,5.44-3.227,24.433-15.727,43.378-13.189,67.945-8.48-5.186-17.329-9.659-25.016-15.286-2.675-14.961,13.082-31.075,19.568-42.844A80.373,80.373,0,0,0,171.269,0h-3.1c-.61,1.914-1.282,3.841-2.092,5.791C160,20.369,139.936,39.4,143.884,57.084c-8.431-6.45-15.25-14.525-18.335-26.806,3.695-8.92,8.235-15.41,15.949-23.044,2.466-2.439,4.932-4.812,7.314-7.233h-4.153C136.744,7.955,128,15.589,124.695,25.929c-.236-1.433-.53-2.813-.672-4.362-.637-6.913.61-13.127,1.807-19.216.458-.8.948-1.58,1.451-2.35H116.473C116.362,14.071,115.062,28.177,123.377,43.619Zm115.77,66.245a100.645,100.645,0,0,0-.093-10.87c-.249-2.288-.423-4.972-.721-7.652.783-4.527,1.309-9.054,1.665-13.59.516,2.475,1.108,4.954,1.371,7.4.6,5.6-.579,12.513,1.424,17.85l.018.013C241.64,105.256,240.416,107.548,239.147,109.863Zm4.523-8.506c-.69,1.01-.093.374-.174-1.34-.1-2.123.036-4.251.018-6.374-.027-3.3-.107-6.686-.427-9.967a66.918,66.918,0,0,0-2.867-13.1c.058-2.252.138-4.5.076-6.757a34.693,34.693,0,0,1,2.154,3.379,67.408,67.408,0,0,1,6.739,22.969C247.818,93.117,245.886,97.048,243.669,101.357Zm7.314-15.241c-.249.619-.632,1.5-1.077,2.479a68.111,68.111,0,0,0-2.689-13.746,49.167,49.167,0,0,0-3.3-8.146,66.635,66.635,0,0,0-3.641-5.871c-.178-3.356-.668-6.744-1.122-10.127,3.307,4.687,6.9,9.263,9.628,14.048,1.914,3.361,3.045,7.38,5.181,10.6A55.513,55.513,0,0,1,250.983,86.115Zm3.063-11.329c-1.553-4-2.332-8.1-4.5-12.045a158.278,158.278,0,0,0-10.981-17.017,128.365,128.365,0,0,0-3.477-14.516c.939.917,1.763,1.87,2.836,2.76,4.91,4.082,10.056,7.661,13.728,13.02a34.252,34.252,0,0,1,2.862,5.546A81.62,81.62,0,0,1,254.046,74.787ZM237.384,30.6c3.539,3.241,9.784,8.7,15.624,10.211.32,2.239.6,4.474.886,6.7-5.266-7.612-12.8-13.572-20.009-19.826-.169-.521-.41-1.055-.588-1.576C234.673,27.6,235.889,29.236,237.384,30.6Zm-.312,66.489c.067.734.147,1.518.218,2.235.485,4.83-.525,9.873-.476,14.716a149.783,149.783,0,0,1-8.916,14.164A220.372,220.372,0,0,0,237.073,97.092ZM210.307,21.576a99.63,99.63,0,0,0,.022-11.916c3.347,9.29,6.259,18.767,7.687,29.134,3.895,28.239-12.887,50.607-14.756,76.825-2.07-4.309-4.015-8.8-5.911-12.993,2.742-11.7,8.182-22.208,11.427-34.044,3.614-13.167,2.916-26.209.2-39.136A52.119,52.119,0,0,0,210.307,21.576ZM197.665,55.628a100.207,100.207,0,0,0,9.682-20.712c.445,2.159.841,4.313,1.091,6.459,1.358,11.654-.85,22.461-4.358,33.563-3.031,9.615-6.374,16.973-7.6,25.773-2.2-4.763-4.358-8.934-6.592-11.52a62.79,62.79,0,0,0-7.536-7.242C185.068,72.739,194.585,60.654,197.665,55.628Z" transform="translate(291.272)"/>
    <path id="Path_2450" data-name="Path 2450" class="cls-2" d="M119.837,68.088C127.414,82,128.595,98.057,135.214,112c1.66,3.485,3.415,6.562,5.975,8.553.785,2.375,4.047,2.955,7.079,2.279,15.664-.1,28.749-29.381,32.528-41.707,3.74-12.217-1.149-35.407,5.56-45.364,7.921-11.751,24.4-1.66,34.66-5.955C233.928,24.409,232.338,11.7,228.4,0H215.851c3.479,9.83,4.347,19.264-4.909,22.673-5.03,1.857-11.413-.626-17.592-1.015A56.048,56.048,0,0,0,195.253,0H183.387a52.639,52.639,0,0,1-2.815,25.954c-4.985,4.315-6.46,10.628-7.538,18.141-2.681,18.734-.779,35.375-10.985,52.418-.409.677-2.323,4.04-4.436,7.315,3.709-25.941-6.919-52.558-16.462-76.6C137.678,18.492,132.731,9.338,128.167,0H113.92c1.238,2.675,2.477,5.355,3.651,8.049,12.019,27.485,23.209,55.284,24.753,84.633-1.168-4.864-2.03-9.338-2.738-11.3-8.419-23.394-25.781-40.462-36.332-62.573A144.078,144.078,0,0,1,95.939,0H82.222c1.085,3.626,2.228,7.143,3.441,10.507C93.494,32.311,108.961,48.122,119.837,68.088Z" transform="translate(58.633 -2.069)"/>
    <path id="Path_2451" data-name="Path 2451" class="cls-2" d="M30.449,206.743c10.421-4.816,10.207-18.21,17.943-25.364,3.7-3.423,11.836-3.116,16.4-7.238,7.345-6.628,7.594-13.528,10.127-22.568,3.89-13.893,2.876-14.2,10.781-28.444,6.926-12.477,7.9-19.136,5.279-32.78C89.193,81.06,87.2,46.563,80.918,41.519,73.476,35.55,55.924,54.646,50.111,59.351,35.386,71.281,25.784,73.493,7.449,80.388,4.97,81.323,2.5,82.28.069,83.317v5.724c.588-.231,1.166-.463,1.758-.672A16.526,16.526,0,0,0,.069,92.7v12.686c1.509,8.64,5.048,17.672,5.582,24.518a47.516,47.516,0,0,1-5.582,26.89v4.371a55.064,55.064,0,0,0,6.147-13.786A53.174,53.174,0,0,0,6.9,122.885c-1.865-9.86-9.294-24.954-3.926-34.934,6.753-2.2,14.066-3.3,21.277-5-7.5,16.817-3.036,33.162-6.423,51.235C15.3,147.674,8.567,157.734.069,166.615v3.468c7.719-7.719,14.08-16.7,17.6-27.117,3.352-9.9,3.383-20.031,3.165-30.34-.151-6.94-.686-13.9.895-20.783.485-2.11,2.675-6.161,3.5-9.121q3.4-.828,6.73-1.941c-1.019,8.351,3.045,20.828,3.864,25.786,3.957,23.846-7.714,41.682-22.163,58.789-2.2,1.576-4.376,3.2-6.659,4.612A58.82,58.82,0,0,1,.069,173.55v6.989c.365-.138.734-.276,1.1-.41,10.372,1.772,19.661,2.586,30.371,1a92.537,92.537,0,0,0,9.1-1.874c-4.758,3.379-8.542,7.7-12.677,11.832-7.474.45-13.995-1.18-21.237-4.718-2.257-1.1-4.451-2.235-6.65-3.156v1.727c5.061,2.105,9.9,5.23,15.428,6.837a26.822,26.822,0,0,0,11.2.53,53.13,53.13,0,0,1-5.3,4.558c-1.513-.218-3.022-.485-4.527-.654a68.017,68.017,0,0,1-16.8-4.291v2c1.589.605,3.178,1.2,4.812,1.691,5.106,1.553,10.461,1.687,15.767,1.745a34.727,34.727,0,0,1-8.676,4.5,13.06,13.06,0,0,1-2.346.494,28.374,28.374,0,0,0-6.218-1.932c-1.117-.285-2.23-.6-3.338-.926v1.2C3,201.366,5.927,201.9,8.892,202.5c-2.893.352-5.7.085-8.823.881v6.054C10.036,206.77,20.607,211.293,30.449,206.743Zm38.143-66.271a21.263,21.263,0,0,0-1.22,4.758c-.939.61-1.865,1.246-2.853,1.816-6.192,3.561-11.6,4.75-18.727,5.172a115.112,115.112,0,0,0,24.464-15.838C69.683,137.735,69.1,139.083,68.593,140.472Zm4.015-9.343a155.826,155.826,0,0,1-29.833,17.5c3.236-3.361,6.383-6.775,9.432-10.176,1.282-1.433,2.292-2.893,3.463-4.34a56.787,56.787,0,0,1,5.724-3.227,34.412,34.412,0,0,1,11.64-3.316c.423-.036.846,0,1.273,0C73.729,128.747,73.173,129.94,72.608,131.129Zm2.8-5.791c-4.491-.289-10.194,2.141-13.452,3.61-1.233.556-2.43,1.18-3.614,1.829.142-.2.316-.387.458-.579,6.561-2.755,13.283-5.221,18.785-9.383C76.863,122.32,76.147,123.833,75.4,125.338Zm3.779-7.937a25.818,25.818,0,0,1-3.316,3.263c-3.846,2.942-8.324,4.278-12.753,6.027-.966.383-1.772.864-2.649,1.3a96.537,96.537,0,0,0,5.831-9.477,118.352,118.352,0,0,0,11.738-9.5c2.448-2.3,3.948-5.017,5.983-7.492A60.781,60.781,0,0,1,79.182,117.4Zm5.293-24.625a41.3,41.3,0,0,1-.387,8.324c-2.261,1.785-4,4.367-6.134,6.3-3.045,2.755-6.65,5.159-10.087,7.71,1.113-2.292,2.248-4.58,3.147-6.913a48.866,48.866,0,0,0,3.944-3.312,36.638,36.638,0,0,0,4.233-5,51.067,51.067,0,0,0,5.1-9.116C84.373,91.57,84.439,92.282,84.475,92.776ZM82.824,80.25c.574,3.579,1.033,6.819,1.322,9.241A50.262,50.262,0,0,1,74.032,104.2a26.33,26.33,0,0,1-2.31,1.9c.539-1.5.97-3.027,1.433-4.545a49.953,49.953,0,0,0,5.155-8.889c.993-2.248,1.834-4.629,2.617-6.962.507-1.5.908-3.04,1.469-4.518C82.85,79.979,82.565,79.351,82.824,80.25ZM81.6,73.186c.361,1.932.694,3.846,1.006,5.707l-.018.009c-2.657,3.316-3.428,8.489-5.15,12.317-.757,1.669-1.749,3.29-2.689,4.919.8-3.294,1.478-6.624,1.972-10.015.832-1.829,1.58-3.69,2.288-5.253A74.539,74.539,0,0,0,81.6,73.186ZM77.883,57.557a111.133,111.133,0,0,1,2.987,11.885c-1.211,3.463-1.545,7.411-3.031,10.777-.218.49-.458,1.028-.677,1.531A164,164,0,0,0,77.883,57.557ZM50.293,68.566c2.319-2.537,4.736-5.261,7.207-7.834-4.763,19.02,1.941,38.789-7.371,57.9a106.354,106.354,0,0,1-12.214,18.856,74.433,74.433,0,0,0,2.751-8.453,39.747,39.747,0,0,0,.881-5.894c4.928-8.524,8.449-17.6,8.943-27.781C50.939,86.211,49.523,77.495,50.293,68.566ZM34.865,79.721a47.045,47.045,0,0,0,7.024-3.374,39.123,39.123,0,0,0,7.345-6.628c-1.175,6.521-.516,12.517-.6,20.04-.089,8.685-1.033,16.862-4.7,24.8-.677,1.464-1.456,2.9-2.275,4.322a74.836,74.836,0,0,0-2.052-16.937C38.6,97.668,34.651,86.878,34.865,79.721ZM33.2,147.946c6.73-7.759,12.223-16.879,16.853-25.577,4.959-9.312,8.244-18.428,8.733-29.174.236-5.261-.423-10.532-.672-15.771-.276-5.845-1.282-8.947.494-15.865.191-.748.632-1.785.935-2.818,5.337-5.217,10.719-9.009,15.339-6.788a5.474,5.474,0,0,1,1.852,2.586c-5.115,30.576-8.035,57.716-31.6,82.452-4.224,4.429-8.636,8.818-13.154,13.1C32.386,149.375,32.813,148.672,33.2,147.946Zm-5.382,14.792c1.749-.387,3.405-.694,4.616-.881,8-1.237,19.7-.792,24.647,7.225.418.677,1.647-.134,1.6-.766-.588-7.705-16.733-9.682-22.337-8.747-1.522.254-3.744.605-6.121,1.117,1.473-1.322,2.938-2.64,4.38-4.006q3.071-.968,6.37-2.333c1.945-.218,3.975-.369,6.152-.507a36.839,36.839,0,0,0,9.748-1.745c.717-.245,6.526-3.379,10.394-5.7-.169,2.662.085,4.861-2.835,12.161-5.934,14.827-5.894,11.921-8.573,11.974-5.253-4.781-13.358-5.778-20.173-6.236a47.307,47.307,0,0,0-10,.272Q26.757,163.661,27.814,162.738ZM11.273,175.273a131.924,131.924,0,0,0,12.339-8.943,47.149,47.149,0,0,1,4.981-.739,57.755,57.755,0,0,1,10.069.605c5.631.77,10.679,1.687,15.241,4.87a11.067,11.067,0,0,0-1.941,1.278C38.092,175.028,25,176.412,11.273,175.273Z" transform="translate(-310.502 167.825)"/>
    <path id="Path_2452" data-name="Path 2452" class="cls-2" d="M305.048,38.194c.107.214.182.441.28.65C305.4,38.937,305.346,38.8,305.048,38.194Z" transform="translate(1052.581 131.82)"/>
    <path id="Path_2453" data-name="Path 2453" class="cls-2" d="M613.143,50.558V49.111c-.873.165-1.74.329-2.6.476-9.78,1.638-19.506,3.3-29.294,4.9-.245.04-.45.036-.69.071,1.638-1.131,3.152-2.3,4.411-3.365,6.784-5.724,18.246-16.523,28.177-14.164V35.37c-5.4-1.126-12.152,1.229-16.27,3.637-8.306,4.856-14.667,12.619-23.151,16.145a58.576,58.576,0,0,1-10.8-.864c-3.138-1.237-6.054-3.383-9.575-6.673,6.993,4.358,17.191,2.279,24.073-.988,9.205-4.371,22.341-19.092,33.078-16.06a6.921,6.921,0,0,1,2.649,1.589V24.318a16.772,16.772,0,0,0-5.68-1.224c-7.371-.556-27.318,9-40.414,7.394C583.373,23,600.083,13.568,613.143,1.153V0h-9.081c-6.859,5.221-14.347,9.557-21.669,14.08,1.273-2.742,1.861-5.876,3.81-8.262A43.553,43.553,0,0,1,591.884,0h-5.867c-1.166,2.577-2.163,5.177-3.441,7.656-.4-3.45-5.119-5.92-11.053-7.656h-10.3c9.753,1.291,20.494,3.837,20.89,8.551a22.155,22.155,0,0,1-4.963,6.263c-7.22,6.21-15.829,4.527-24.522,2.3l-.009,0h-.013c-1.634-.418-3.254-.8-4.879-1.211-6.761-5.488-11.756-12.041-22.76-11.044A30.784,30.784,0,0,0,505.751,14.1c.165-.516.321-1.033.5-1.554C510.767,5.751,523.5,1.794,534.2,0h-8.141c-1.976.672-3.935,1.42-5.889,2.243A75.239,75.239,0,0,0,507.749,8.7c.191-.441.405-.877.61-1.322,3.111-2.631,6.272-5.115,9.561-7.376H504c.022.254.045.507.062.766-.387,1.046-.766,2.083-1.1,3.129-.125-1.344-.312-2.631-.53-3.895h-2.15a65.281,65.281,0,0,1,1.727,7.282,50.986,50.986,0,0,0-1.028,5.261A40.8,40.8,0,0,0,494.56,0h-4.79a116.312,116.312,0,0,1,11.1,12.749c.062.085.089-.045.1-.125a40.24,40.24,0,0,0-.28,9.094,1.285,1.285,0,0,0,.076.766,28.861,28.861,0,0,0,1.255,5.991c-6.459-6.686-13.545-12.562-20.374-19.835C478.963,5.773,476.457,2.9,474.062,0h-3.49c10.069,11.729,22.626,22.079,33.483,32.989,3.445,5.9,9.5,10.274,19.021,11.845-21.762-.169-36.016-3.4-46.36-26.922A164.41,164.41,0,0,0,467.309,0h-6.156a133.307,133.307,0,0,1,10.594,18.477c3.236,7.309,5.248,13.354,11.2,19.185,13.189,12.913,26.383,10.777,42.256,8.351a16.86,16.86,0,0,0,3.267,1.509c-.138.24-.267.49-.4.73-2.106.312-4.336,2.626-5.92,3.672a90.562,90.562,0,0,1-11.6,6.463c-8.724,4.069-18.086,11.182-27.834,12.027a5.581,5.581,0,0,0-1.028.263c-.321-.7-.565-1.416-.948-2.1-2.782-4.968-5.9-6.032-11.257-7.732-6.174-1.963-16.2-.944-21.963,3.37-1.055-.877-3.169-1.772-7.3-2.364-3.784-.245-9.05-1.6-12.624-.472-7.536,2.373-8.929,10.171-8.195,17.084-.872.289-1.691.605-2.493.953.027-10.015-7.478-20.672-17.8-22.025A15.694,15.694,0,0,0,383.419,65c-3.659,5.8-2.938,10.848-2.123,17.031a16.579,16.579,0,0,0-8.84,6.254c-4.082,5.448-4.3,13.857-2.453,20.191a22.1,22.1,0,0,0,6.352,10.461,15.493,15.493,0,0,0,3.632,2.346c-4.563,6.77-7.015,14.818-5.426,21.829,1.22,5.377,3.3,9.53,7.429,12.157a9.585,9.585,0,0,0-2.934,2.39,4.631,4.631,0,0,0-.543,1.006,15.271,15.271,0,0,0-11.809-5.506c-6-.2-10.2,2.074-15.01,4.616-6.348-1.375-13.06-.307-18.384,4.407-8.538,7.567-8.627,21-2.938,30.318a35.748,35.748,0,0,0,4.576,6.17c-5.27,6.819-7.051,18.589.833,23.645,3.917,2.515,7.834,2.341,12.286,1.941,2.742-.245,7.416-.868,10.612-2.684a16.425,16.425,0,0,0,1.7,2.368,2.075,2.075,0,0,0,.708.49c.031.04.076.067.107.107a18.629,18.629,0,0,0-2.372,13.666c-9.005,5.092-17.77,16.265-25.23,28.564-9.352,5.106-17.089,6.868-24.589,14.8-6.272,6.641-13.657,14.151-18.037,22.559-11.792,22.662,2.724,40.8,12.953,60.347-1.091,10.835-1.371,22.671,3.249,26.646.957.828,2.212,1.42,3.379.463,12.495-10.243,16.6-23.5,31.484-33.113,13.612-8.8,21.491-14.342,24-31.306a54.4,54.4,0,0,0,.178-14.974c-.712-5.533-3.757-7.776-3.846-14.458-.027-1.985,3.258-4.3,3.4-6.592.948-15.633-9.539-21.687-12.241-35.593q3.793-6.136,7.354-12.508c2.466,3.61,6.628,6.21,12.535,6.708a23.786,23.786,0,0,0,6.681-.5l0,.013c-.08,9.548-8.008,16.635-8.039,26.4-.018,7.091,2.746,12.66,4.5,19.408,1.1,4.2.748,7.367,3.214,11.164,3.579,5.511,11.965,8.76,15,15.01,1.282,2.64.912,5.667,2.377,8.368a.92.92,0,0,0,.979.561c6.454-.441,11.4-17.471,13.594-21.175,4.184-7.064,7.5-11.916,8.609-20.3,1.122-8.5.476-19.751-4.616-26.85-3.881-5.417-10.038-7.541-15.175-11.222-2.448-1.758-4.362-6.784-7.451-8.039a24.681,24.681,0,0,0,4.554-5.564c.187.147.285.414.512.485,11.217,3.49,24.273-7.438,27.046-17.685,1.816-6.713-.191-22.074-10.1-20.071a22.021,22.021,0,0,0-1.286-3.49c1.576-1.264,2.786-2.862,4.723-3.877,3.076-1.611,6.25-.908,9.495-1.874a8.188,8.188,0,0,0,4.861-3.882c2.248,10.585,8.854,20.151,20.748,19.826,7.639-.2,13.951-4.073,18.509-9.57-.094,7.963,6.152,15.112,6,23.182-.089,4.563-5.373,9.7-5.546,15.268-.276,8.961,4.064,13.439,8.368,20.752,6.619,11.24,7.452,10.772,11.787,24.861,3.8,12.344,7.527,17.146,18.059,23.966,7.167,4.638,30.9,24.918,38.112,23.961,8.547-1.14,7.086-24.585,7.656-31.333,1.438-17.106,6.005-24.781,12.985-41.1,3.183-7.438,6.219-14.952,6.263-23.214.111-21.763-17.694-30.5-16.02-52.356,1.3-16.942-5.68-27.491-16.884-40.917.57-1.046,1.091-2.137,1.589-3.241a56.568,56.568,0,0,0,5.533,6.1c9.063,8.587,22.016,11.062,29.957,21.473,7.354,9.642,7.443,21.322,11.987,32.085A85.119,85.119,0,0,0,605.3,218.235a55.433,55.433,0,0,0,7.839,7.545v-8.845c-1.126-1.144-2.235-2.341-3.3-3.663-.036-.045-.062-.089-.1-.134-14.111-24.785-3.855-52.575-6.214-79.438-.547-6.2-1.834-17-5.7-24.647,2.163,1.487,4.322,2.982,6.535,4.407a1.393,1.393,0,0,0,.142.494c.245.307.419.668.65.979,10.43,19.074,6.539,39.608,7.99,60.2V169.11l-.009-.089c-.08-2.355-.058-4.714.009-7.064V120.364c-.223-.623-.432-1.26-.69-1.865.231.138.458.267.69.405v-7.278a187.525,187.525,0,0,1-26.049-18.687c-2.8-2.448-6.031-5.444-9.383-8.8,11.257,4.923,23.307,7.5,35.432,11.155V92.806c-14.418-6.236-29.223-11.979-44.464-18.42q-1.736-2.036-3.41-4.162c13.2,9.183,31.284,14.062,47.874,18.736V84.8c-11.315-3.361-22.777-6.975-32.82-11.832,2.217.525,4.482.948,6.744,1.331-8.591-2.671-16.483-6.085-22.475-11.329-.04-.031-.053.049-.089.04-.525-.45-1.033-.908-1.54-1.375,13.683,3.29,34.008-3.174,45.185-2.057,1.687.165,3.343.392,4.995.645V54.613a102.611,102.611,0,0,0-12.967-.734C604.3,52.819,608.692,51.6,613.143,50.558ZM340.985,283.3a42.71,42.71,0,0,0,5.235,12.277c3.525,5.261,6.851,9.918,9.379,14.943-2.034-1.758-4.251-3.419-6.325-5.471C342.516,298.354,340.576,291.081,340.985,283.3Zm-31.613,12.668c3.285-4.2,6.593-9.432,11.151-12.682a25.562,25.562,0,0,1,5.569-3.009c-.717,1.4-1.411,2.778-2.088,4.153-2.51,3.481-4.977,6.962-8.6,9.57a52.578,52.578,0,0,1-8.1,4.38C307.992,297.584,308.668,296.868,309.372,295.968Zm-6.886,7.674c2.123-1.028,4.821-3.058,6.223-3.677a35.256,35.256,0,0,0,8.271-4.718,29.1,29.1,0,0,0,3.619-3.6c-.636,1.416-1.242,2.778-1.816,4.109-8.591,6.494-18.624,11.342-23.926,20.721C295.653,311.063,298.617,307.653,302.485,303.643Zm12.49,1.456c-.089.24-.2.512-.289.743-.125.338-.218.721-.343,1.064-.868,1.211-1.678,2.511-2.439,3.441a76.364,76.364,0,0,1-9.708,9.486c-1.838,1.576-3.561,2.876-5.074,4.3,2.168-2.907,3.695-6.183,6.241-8.912,2.742-2.933,6.2-5.257,9.214-7.852C313.454,306.616,314.184,305.855,314.976,305.1Zm-8.965,41.593c-.08,1.126-.245,2.559-.45,4.2-2.159-4.723-5.23-8.934-7-13.83a87.183,87.183,0,0,1-2.626-8.484c4.206-5.333,10.1-9.308,14.538-14.489.739-.864,1.62-1.892,2.5-2.978A157.688,157.688,0,0,0,306.011,346.691ZM321.96,364.02c-2.568,3.37-4.082,7.447-6.681,10.746a12.827,12.827,0,0,0-2.083,3.512,6.739,6.739,0,0,0-.307-.921c-1.22-2.733.548-22.27.677-25.208a126.98,126.98,0,0,1,3.543-22.9c.009,1.985,0,3.962.147,5.965.209,2.773,3.962,18.74,5.4,28.052C322.441,363.535,322.169,363.744,321.96,364.02Zm5.586-5.537a34.031,34.031,0,0,0-4.558,4.434c-.828-8.017-3.156-15.673-3.962-23.944a91.8,91.8,0,0,1,.178-17.917c.721-2.475,1.465-4.932,2.319-7.318C323.068,329.362,328.966,343.54,327.546,358.483Zm4.892-3.534a55.106,55.106,0,0,0,.726-12.036c-.4-7.389-2.421-14.458-3.579-21.807a51,51,0,0,1-.294-11.427c.543,1.727,1.059,3.459,1.749,5.155a76.638,76.638,0,0,0,8.128,15.419c3.267,4.594,8.689,8.155,11.542,13.051C345.316,347.849,338.577,351.022,332.438,354.948Zm19.007-12.375c-2.333-4.9-7.589-8.364-10.906-12.757a60.564,60.564,0,0,1-10.848-25.257c.49-4.113,1.1-8.235,1.585-12.388.267-.5.507-1.019.779-1.518a37.587,37.587,0,0,0,2.524,9.517c5.724,13.528,22.773,20.062,22.568,35.4A27.455,27.455,0,0,1,351.446,342.574Zm6.036-27.474c.516,1.674.988,3.361,1.4,5.061a38.289,38.289,0,0,1,.677,3.9,18.394,18.394,0,0,1-1.184,8.974,18.52,18.52,0,0,0-4.514-13.287c-7.545-9-15.637-12.74-19.047-25.123a32.273,32.273,0,0,1-1.055-6.953c1.442-2.546,2.9-5.083,4.416-7.585a36.119,36.119,0,0,0,1.914,15.063,28.593,28.593,0,0,0,8.591,12.731c2.72,2.444,5.96,4.353,8.627,6.793C357.361,314.82,357.428,314.958,357.482,315.1Zm-2.96-36.9a29.712,29.712,0,0,1,1.754,8.6,40.537,40.537,0,0,1-1.9-5.849c-.338-1.553-.4-3.054-.6-4.576C354.027,276.979,354.286,277.549,354.521,278.2Zm1.825,13.234c-.094,1.429-.231,2.889-.392,4.429-2.84-4.923-5.738-9.731-6.913-15.664-.859-4.353-2.431-9.041-2.5-13.523.53-.828,1.055-1.66,1.58-2.488A43.952,43.952,0,0,0,350.6,269.7a57.209,57.209,0,0,0,1.7,11.529A47.812,47.812,0,0,0,356.346,291.437ZM560.631,23.107a54.738,54.738,0,0,0,9.624-.855,80.814,80.814,0,0,0-8.066,6.864,11.336,11.336,0,0,1-5.911-6.388A23.415,23.415,0,0,0,560.631,23.107Zm-9.165,4.131c5.64,12.468,22.181,11.823,34.36,9.2a46.711,46.711,0,0,0,6.739-2.208c-4.625,3.04-9.058,6.748-13.327,8.974-9.005,4.7-23.289,6.873-28.871-3.717A27.294,27.294,0,0,1,551.466,27.238Zm-43.4,8.262c-.654-.832-1.291-1.7-1.968-2.493a17.142,17.142,0,0,1-1.825-5.894c.427-.6.832-1.224,1.318-1.87a13.047,13.047,0,0,1,7.118-4.763,20.278,20.278,0,0,1,7.518-.792c-6.695,5.288-7.741,12.878-1.634,17.957a12.554,12.554,0,0,0,.877,2.448,12.973,12.973,0,0,0,1.959,2.849C515.076,41.42,510.83,38.8,508.065,35.5ZM522.1,18.522a15.766,15.766,0,0,0-8.725-.352,15.005,15.005,0,0,0-9.285,6.236,26.191,26.191,0,0,1,.058-2.827c3.067-1.883,5.333-4.576,8.658-6.517A30.91,30.91,0,0,1,530.2,10.879c3.988.334,7.567,1.927,11.1,3.717a26.554,26.554,0,0,0-8.983-.165A28.244,28.244,0,0,0,522.1,18.522Zm2.2,17.863c-3.379-5.177,3.116-8.947,5.92-12.5a25.525,25.525,0,0,0,2.119-2.835,25.691,25.691,0,0,1,8.925-1.313,35.022,35.022,0,0,1,7.278,1.242l-.013.138c-3.783,3.8-6.552,9.17-8.524,15.442-.022,0-.045-.013-.067-.009l.045-.2c-2.8.69-5.137,2.573-7.211,4.972C529.312,40.658,525.969,38.94,524.3,36.385Zm12.522,13.728c-1.269,7.385-2.074,14.676-2.8,20.917-.588-.347-1.18-.694-1.749-.984a14.44,14.44,0,0,0-7.047-1.509C528.889,62.274,532.361,55.775,536.826,50.113Zm-41.42,101.428a8.034,8.034,0,0,1,3.414-3.7,20.126,20.126,0,0,1,5.533,2.7,27.237,27.237,0,0,1,4.5,4.024c-.076,2.373-.547,4.75-2.288,6.334a7.2,7.2,0,0,1-8.128,1.122q-3.632-.721-2.782-5.043Q493.681,154.014,495.406,151.541Zm-8.627-22.119a19.071,19.071,0,0,0,9.913,1.246,15.159,15.159,0,0,0,1.95,7.834,23.489,23.489,0,0,0-12.829.058A32,32,0,0,0,486.779,129.422Zm15.994,10.6c-.116-1.309-.174-2.622-.214-2.925-.316-2.395-1.095-5.279-.227-7.607a4.16,4.16,0,0,0,.08-.423,25.559,25.559,0,0,0,10.866-8.671c5.555,1.2,12.326-.214,16.639-3.761a12.052,12.052,0,0,0,3.178-4.046,63.123,63.123,0,0,0,7.656,18.58c-2.724,4.732-5.4,8.8-10.122,12.357-4.954,3.726-10.354,4.861-15.887,6.8A30.953,30.953,0,0,0,502.773,140.025Zm14.235-35.375a25.484,25.484,0,0,1,5.168-1.269c-3.009,2.417-2.755,10.51,1.553,10.8,4.4.3,5.4-8.337,2.217-10.852.561.027,1.122-.089,1.674-.022,1.188.147,2.6.329,3.979.392.165,1.567.4,3.111.668,4.665-.708,2.591-1.74,4.985-4.2,6.619a20.311,20.311,0,0,1-13.381,2.978,21.257,21.257,0,0,0,2.764-8.849A18.551,18.551,0,0,0,517.008,104.651Zm14.284-5A18.453,18.453,0,0,0,515.5,98.383c-.156.053-.2.249-.334.338a50.317,50.317,0,0,0-5.8-9.472,41.933,41.933,0,0,0,4.367-4.273c3.272,4.117,9,3.957,13.341,1.3a10.073,10.073,0,0,0,5.168-8.2l.783.316c-.138.837-.254,1.852-.4,2.577A75.158,75.158,0,0,0,531.292,99.647ZM525.9,76.634a12.062,12.062,0,0,1,4.407.686c.223.089.681.258,1.229.472a10.675,10.675,0,0,1-7.327,8.831,9.072,9.072,0,0,1-9.864-2.306c1.313-1.527,2.537-3.1,3.708-4.718.04,2.893,1.237,5.7,3.815,5.871C525.483,85.715,526.912,80.4,525.9,76.634Zm-27.754-1.4c6.717-3.846,13.71-6.94,19.951-11.609.356-.272,1.669-1.407,3.294-2.925-.107.165-.214.378-.32.534C515.82,69,509.7,76.425,504.785,84.451c-3.984-3.187-8.756-4.58-13.924-4.914C493.438,78.241,495.98,76.474,498.148,75.232ZM483.254,90.673a3.166,3.166,0,0,0,2.43,1.278l-.623-.24c.232.1.414.04.628.093l0,.147c.405,0,.846.04,1.26.049h.018c10.34.267,23.881,3.249,25.635,15.82,1.042,7.469-5.72,13.327-12,15.54-.832-.619-1.732-.552-2.448.623-4.011.828-7.972.525-11.921.913a24.769,24.769,0,0,0-12.691-17.049A33.277,33.277,0,0,0,483.254,90.673Zm-1.371,37.81c-.254,12.664-12.735,23.743-25.488,21.74-9.931-1.558-16.194-11.119-12.989-20.828.975-2.96,2.159-6.561,4.037-9.027,1.558-2.052,3.454-3.174,4.8-5.261a19.709,19.709,0,0,0,11.275-.783,28.737,28.737,0,0,0,7.34-3.988c.058.093.071.258.147.325C476.777,115.583,482.043,120.15,481.883,128.483ZM447.772,70.54c5.765-8.128,25.715-3.877,27.647-2.39a11.879,11.879,0,0,1,3.477,5.168A7.729,7.729,0,0,0,480.169,78a26.123,26.123,0,0,1,.04,8.115c-1.642,9.121-9.757,17.218-18.7,19.163-8.68,1.883-14.7-2.444-17.712-10.416C440.343,85.71,444.919,78.926,447.772,70.54ZM428.9,67.13c1.068-.588,2.591-.556,3.726-1.122,1.914-.957,7.621.734,11.685,1.242-.151.223-.329.427-.476.654-2.372,3.619-5.261,7.322-6.953,11.4-2.822-2.114-6.779-2.729-10.875-2.324C425.622,73.527,425.382,69.067,428.9,67.13ZM417.757,93.736c3.761-2.217,12.49-4,16.7-2.177a3.2,3.2,0,0,0,.592.107A30.711,30.711,0,0,0,437.7,101.6a25.143,25.143,0,0,0,8.791,10.959,23.2,23.2,0,0,0-10.238,10.572c-7.438,1.54-17.747-4.772-21.2-9.793C410.346,106.489,410.029,98.29,417.757,93.736ZM397.726,65.55a13.359,13.359,0,0,1,4.078.414,2.866,2.866,0,0,0,.214,3.258l.3.307c1.79,1.812,2.52-.383,2.413-2.453a17.163,17.163,0,0,1,3.61,2.057,11.482,11.482,0,0,1-3.031,5.586c-2.137,1.692-6.57,3.12-8.542.307q-.247-3.846-.49-7.687A14.02,14.02,0,0,1,397.726,65.55Zm-9,5.3a10.812,10.812,0,0,1,5.934-4.785,12.29,12.29,0,0,0-1.487,6.165c.36,3.334,3.107,6.695,6.619,6.949,3.347.245,9.072-4.576,9.815-8.6,2.475,2.657,4.117,5.92,5.854,9.486A21.262,21.262,0,0,0,412.22,82a23.11,23.11,0,0,0-5.822,6.619A20.292,20.292,0,0,0,402.28,85.1c-3.57-2.114-7.954-3.063-12-3.619-.828-.116-1.571-.058-2.364-.1C387.715,77.636,386.624,74.355,388.73,70.847ZM377.29,102.51c-1.732-4.763.636-7.674,4.033-10.594,5.221-4.482,11.556-3.89,17.716-1.634,1.821.663,3.615,1.807,5.484,2.644a27.95,27.95,0,0,0-1.269,14.338,23.44,23.44,0,0,0-12.94,3.855,3.83,3.83,0,0,0-1.264-.948C384.35,108.367,379.338,108.14,377.29,102.51Zm3.828,37.373c-.111-14.146,16.132-17.146,25.742-21.963l.009-.013a27.041,27.041,0,0,0,4.068,5.208,16.129,16.129,0,0,0-3.347,2.622,38.049,38.049,0,0,0-6.7,11.979c-1.794,5.132-1.714,11.409-.378,17.142C391.352,156.7,381.2,149.676,381.118,139.883Zm14.818,57.1-.352.04a2.712,2.712,0,0,0-2.355,2.043,19.749,19.749,0,0,0-1.527-4.576c4.483.347,9.878,4.117,10.007,8.8a7.2,7.2,0,0,1-2.675,5.582c-1.874,1.456-3.913,1.34-6,1.576a28.4,28.4,0,0,0,.685-7.029c.89,1.749,2.47,2.573,4.042-.067l.231-.387C399.11,201.1,398.95,196.624,395.937,196.984Zm-9.993-24.776a8.717,8.717,0,0,0,10.812-2.426,13.705,13.705,0,0,1,2.208,2.016c2.987,3.913,1.776,7.705.917,12.05a3.161,3.161,0,0,1-.147.414c-4.082-.548-8.337.69-12.059,4.923a17.624,17.624,0,0,0-2.355-1.887C387.764,183.087,387.492,177.461,385.943,172.208Zm.921-.734a5.5,5.5,0,0,1-1.371-.708,38.806,38.806,0,0,0-1.669-4.064,9.685,9.685,0,0,1,4.033-.565c-.859,2.453,1.309,5.929,3.361,2.867a3.29,3.29,0,0,0,.534-2.114,17.159,17.159,0,0,1,4.589,2.515C393.867,171.834,390.662,172.56,386.865,171.474Zm-16.7-7.563c-.405,3.517,1.478,7.874,4.576,6.21a5.323,5.323,0,0,0,2.016-2.938l.022-.1c6.539,4.937,6.575,11.159,6.321,19.176a14,14,0,0,0-10.892.321,35.877,35.877,0,0,0-1.838-13,30.352,30.352,0,0,0-1.251-2.916c-.058-.076-.2-.316-.418-.668a25.336,25.336,0,0,0-4.34-5.6c-.272-.258-.592-.454-.872-.7A19.611,19.611,0,0,1,370.168,163.911Zm-26.744,56.438c-3.815-.276-6.388-1.58-7.692-5.377a8.426,8.426,0,0,1-.245-4.638c.792,3.085,4.99,5.034,8.092,4.834a10.543,10.543,0,0,0,9.637-7.99,17.468,17.468,0,0,0,3.227.178,20.312,20.312,0,0,0,.8,11.355A33.068,33.068,0,0,1,343.424,220.349Zm1.326-10.407c1.834.3,2.724-2.239,2.444-4.233a31.673,31.673,0,0,0,4.478,1.233c.258.045.7.116,1.2.187a10.537,10.537,0,0,1-8.48,6.984c-4,.458-8.235-1.936-8.057-6.356a40.687,40.687,0,0,1,3.557-5.3c.418.245.775.53,1.224.757.841.423,1.807.783,2.72,1.18C342.614,206.092,342.654,209.6,344.751,209.942Zm14.235-9.984c-7.421-2.181-15.593-3.886-20.739-10.109-5.907-7.149-6.245-16.3,3.971-19.078,7.923-2.154,13.928-.093,20.623,3.939.361.218.592.338.792.441v0a32.426,32.426,0,0,1,2.408,3.3,20.627,20.627,0,0,1,3.85,9.339A29.444,29.444,0,0,0,358.986,199.958Zm4.442,18.411c-8.7-11.057,6.512-30.046,19.234-23.708,7.736,3.859,7.144,13.318,3.361,20.027-3.37,5.965-10.087,8.2-16.554,7.371-1.834-.236-3.672-.993-5.488-1.255A3.694,3.694,0,0,0,363.429,218.369Zm13.14,15.01c2.319.374,3.054-4.491,1.024-5.35a21.237,21.237,0,0,0,4.839-2.008c-.16,4.692-5.177,11.378-9.958,7.3a5.217,5.217,0,0,1-1.651-4.567,20.42,20.42,0,0,0,5.132-.352C374.721,229.751,374.664,233.067,376.569,233.378Zm10.4,13.519c.107-.053.223-.085.329-.142a25.387,25.387,0,0,0,.08,6.29c-.156-.334-.378-.65-.53-.984a41.663,41.663,0,0,0,.2-4.674C387.047,247.191,386.985,247.08,386.972,246.9Zm1.4,10.616a37.682,37.682,0,0,0,1.42,3.988,16.6,16.6,0,0,1-1.616,5.15c-1.322,2.462-2.715,3.107-5.008,4.229,1.117-5.31,2.6-10.625,3.379-16.14A21.141,21.141,0,0,0,388.369,257.513Zm.592,11a15.266,15.266,0,0,0,1.825-4.7,65.3,65.3,0,0,0,3.516,6.259c-2.025,4.825-7.26,8.769-12.406,9.864a47.345,47.345,0,0,1,.632-5.822A13.524,13.524,0,0,0,388.961,268.513Zm-5.529,22.653a29.429,29.429,0,0,1-1.393-7.661c5.017-.476,10.79-6.339,12.807-12.544.574.89,1.166,1.758,1.758,2.622-2.462,6.891-9.219,12.263-12.553,19.074C383.851,292.127,383.624,291.74,383.433,291.165Zm4.705,9.913a51.709,51.709,0,0,1-3.245-6.374c3.161-6.125,8.449-10.639,12.384-16.532.076-.116.116-.245.191-.365.178,4.607.347,9.085-1.464,13.9C394.316,296.182,391.1,298.35,388.138,301.079Zm6.454,11.956a10.947,10.947,0,0,0-.605-1.834c-.547-1.157-1.1-2.074-1.656-3.067,2.7-1.723,5.181-4.941,6.873-7.8-.267.868-.427,1.7-.783,2.6C397.138,306.229,395.469,309.59,394.592,313.035Zm19.693-18.593c-2.573,7.229-8.493,20.075-12.869,25.947s-5.195,2.644-5.845-1.816c1.331-8.106,5.439-15.206,7.015-23.312a29.174,29.174,0,0,0,.37-5.742c.013-.08.022-.16.036-.236a40.209,40.209,0,0,1,.022,5.969c-.343,5.457-.868,10.465.953,15.758.81,2.341,2.631,1.019,3.023-.792,2.052-9.539,3.5-21.669,1.1-31.208-.156-.637-.4-1.175-.6-1.767,3.806,2.608,6.65,5.257,8.168,10.51A28.456,28.456,0,0,1,414.285,294.442Zm-19.991-38.5c1.126,1.291,3.41,1.723,4.75,2.835,5.115,4.269,10.607,6.072,13.933,12.571a29.181,29.181,0,0,1,2.822,12.789c-1.789-4.8-5.707-7.643-9.811-10.518a34.036,34.036,0,0,0-3-4.812c1.113,1.3,2.092,2.653,3.321,4.055.08.093.147-.107.111-.169a22.647,22.647,0,0,0-7.011-8.538,61.871,61.871,0,0,1-10.3-18.517c.151-.1.3-.2.45-.3-.062,1.38.378,2.751,1.616,3.054A46.313,46.313,0,0,0,394.294,255.942ZM378.95,244.213c-4.313.294-9.032-.993-12.121-4.322-3.615-3.89-2.279-6.477-.013-10.438a4.252,4.252,0,0,0,.405-1.211c.458.142.984.356,1.349.423.423.076.881,0,1.313.049-.129,4.162,1.7,8.008,6.931,7.389,4.892-.579,7.625-5.965,6.374-10.465a18.321,18.321,0,0,0,3-2.439c1.5,5.155,6.819,6.628,11.849,6.023C394.957,237.705,388.254,243.585,378.95,244.213Zm10.006-24.22a29.383,29.383,0,0,0,3.939-9.072c2.684.218,4.745.325,6.958-1.758,2.088-1.963,2.755-3.361,2.631-6.072-.236-4.994-4.847-9.152-9.73-9.8a5.789,5.789,0,0,1,2.991-1.416c5.092-.752,10.558,2.292,13.065,6.512C416.533,211.38,402.458,228.731,388.957,219.993Zm26.659-14.3a10.705,10.705,0,0,1,3.12,1.692c5.008,4.242,2.844,11.916-.957,16.007-2.809,3.027-6.917,6.045-10.986,6.984a37.929,37.929,0,0,1-6.753.516,20.726,20.726,0,0,0,.338-2.114,17.759,17.759,0,0,0,2.88-.953,18.025,18.025,0,0,0,6.045-4.487c4.389.49,8.4-1.776,9.156-6.579a6.812,6.812,0,0,0-3.356-6.681A39.4,39.4,0,0,0,415.616,205.691Zm-.712,6.094c1.42,1.091,1.015,2.195.694,4.905q1.128,4.207-2.666,4.959a6.657,6.657,0,0,1-3.307,1.233A24.575,24.575,0,0,0,414.9,211.785Zm17.467-36.652c-1.852,3.548-2.751,7.848-8.44,7.438a14.575,14.575,0,0,0-8.106,1.714c-2.021.988-2.969,3.16-4.692,4.126a3.591,3.591,0,0,0-1.246,1.429,18.021,18.021,0,0,0-7.776-5.164c4.5-5.649,2.653-16.3-.708-21.74a19.256,19.256,0,0,0-5.146-5.284A20.85,20.85,0,0,0,400.8,156.3a29.539,29.539,0,0,0,2.6,6.552c6.543,11.6,19.951,12.984,30.144,6.989A37.441,37.441,0,0,0,432.371,175.133Zm2.969-10.127a7.09,7.09,0,0,0-.881-.107c-2.626.045-5.217.895-7.874.783-5.5-.231-10.973-1.883-14.547-6.259a17.394,17.394,0,0,1-2.186-19c2.395-4.83,7.118-7.122,9.628-11.5a4.85,4.85,0,0,0,.2-.552,21.514,21.514,0,0,0,3.365,1.184A19.584,19.584,0,0,0,434.352,128a32.693,32.693,0,0,0-1.144,6.77,28.188,28.188,0,0,0,8.627,21.8A22.347,22.347,0,0,0,435.34,165.006Zm20.111,31.141c-18.215.507-17.32-23.984-6.726-33.247a4.375,4.375,0,0,0,1.028-1.62,22.308,22.308,0,0,0,7.759,1.335,27.765,27.765,0,0,0,16.719-6.04C477.284,172.075,476.385,195.56,455.451,196.148Zm20.512-40.939a32.4,32.4,0,0,0,5.747-6.886c.071-.013.116.013.187,0a33.382,33.382,0,0,1,13.884-1.037c-3.525,3.971-4.656,11.146-1.166,14.694,3.708,3.77,9.771,3.165,13.216-.61a7.247,7.247,0,0,0,1.807-5.858c4.1,4.945,6.833,11.56,4.1,17.414-3.014,6.463-12.606,8.431-18.98,8.128-5.244-.249-9.735-2.925-14.725-3.744C481.028,169.676,480.992,159.2,475.962,155.209Zm12.887,53.968a82.027,82.027,0,0,0-4.469,7.131c.752-5.115.343-10.176.218-15.348a38.625,38.625,0,0,1,13.26-9.557c1.4-.65,2.786-1.273,4.14-1.919a25.315,25.315,0,0,0,8.141-2.947c-.5,1.1-.984,2.168-1.46,3.232C500.952,195.5,494.556,201.1,488.849,209.177Zm16.488-9.606a120.324,120.324,0,0,0-1.892,13.674,42.4,42.4,0,0,1-2.635,3.721,52,52,0,0,1-6.69,6.214c-4.028,3.209-7.781,5.938-12.713,6.94a10.474,10.474,0,0,0,.383-2.07C488.72,217.282,496.011,207.841,505.337,199.571Zm-20.739-.507a39.152,39.152,0,0,1,1.509-11.654,25.181,25.181,0,0,0,11.645,2.528,52.7,52.7,0,0,0-8.689,4.554A21.846,21.846,0,0,0,484.6,199.063Zm-4.06,32.668c6.4-.45,12.121-5.132,16.688-9.312a42.773,42.773,0,0,0,6.085-6.851c-.107,1.509-.2,3.014-.263,4.527a49.122,49.122,0,0,1-4.928,5.346c-4.665,4.491-12.139,9.49-19.2,8.293C478.98,232.622,479.782,232.559,480.538,231.731Zm2.439,13.109a90.317,90.317,0,0,1-3.557-8.64c5.711.525,14.146-4.224,17-7.029a67.973,67.973,0,0,0,6.512-7.024c-.04,1.442-.058,2.876-.067,4.327-.864,1.749-1.683,3.619-2.47,5.631-1.073,1.415-2.244,2.84-3.512,4.349a33.448,33.448,0,0,0-4.968,7.474c-.285.623-1.883,6.388-2.786,10.376C487.5,252.528,485.907,251.317,482.978,244.841Zm9.174,14.039a19.641,19.641,0,0,0-2.337-3.775c.187-1,.352-2,.6-3,1.554-6.285,4.162-10.572,8.342-15.5a104.757,104.757,0,0,0-4.981,25.933C493.251,261.306,492.739,260.082,492.152,258.88Zm3.574,8.471a142.012,142.012,0,0,1,7.26-30.487c.165,4.224.423,8.422.73,12.548.129,1.736.454,3.312.663,4.981a51.264,51.264,0,0,1-1.482,5.769,31.292,31.292,0,0,1-5.119,9.7c-.24.3-.525.561-.792.837C496.581,269.581,496.149,268.468,495.726,267.351Zm2.016,5.44c3-2.76,4.99-7.995,6.072-11.053.458-1.286.668-2.644,1.01-3.971.062.369.089.761.151,1.126-2.31,6.018-4.91,11.965-5.64,18.17C498.8,275.648,498.263,274.224,497.743,272.79Zm2.818,7.46a22.971,22.971,0,0,1-.053-4.215c.49-4.362,2.417-8.128,4.055-12.121.356-.872.543-1.7.81-2.546a88.494,88.494,0,0,0,2.524,9.753,107.8,107.8,0,0,0-1.148,13.626c-.04,3.04.792,5.724,1.135,8.6A54.9,54.9,0,0,1,500.56,280.251Zm12.731,18.869a37.023,37.023,0,0,1-5.181-5.462c.254-2.6-.347-5.346-.267-7.959.107-3.717.8-7.585,1.282-11.427.8,2.159,1.58,4.331,2.537,6.383a45.534,45.534,0,0,0-.307,4.656,32.912,32.912,0,0,0,.614,5.9,46.012,46.012,0,0,0,2.733,9.014C514.208,299.841,513.6,299.383,513.291,299.12Zm9.232,6.77c-2.693-1.865-5.132-3.61-6.882-4.932a45.458,45.458,0,0,1-3.258-15.82,22.286,22.286,0,0,1,.209-2.7c.677,1.367,1.438,2.68,2.186,4a45.168,45.168,0,0,0,2.444,8.711c.846,2.057,1.87,4.1,2.9,6.072.663,1.269,1.416,2.5,2.03,3.788C522.608,305.984,523.017,306.158,522.523,305.89Zm.988.686,0-.009c-.5-3.815-3.387-7.558-4.8-11.079-.619-1.54-1.051-3.2-1.527-4.843,1.647,2.591,3.392,5.119,5.3,7.567.668,1.687,1.411,3.339,1.99,4.781a67.37,67.37,0,0,0,3.365,6.477C526.356,308.495,524.914,307.537,523.512,306.576Zm7.046,4.647c-1.5-2.889-3.695-5.569-4.932-8.591-.182-.45-.383-.939-.574-1.4a147.749,147.749,0,0,0,15.25,15.557A101.354,101.354,0,0,1,530.558,311.223Zm15.339,7.153a5.084,5.084,0,0,1-2.871-.441c-16.71-22.461-32.557-41.348-33.928-72.245-.245-5.537-.343-11.173-.307-16.813.263.886.494,1.781.788,2.649a126.534,126.534,0,0,0,5.969,26.534c2.964,9.076,6.851,16.928,13.55,23.97,3.276,3.45,7.127,6.316,10.7,9.432,3.979,3.472,6.628,4.758,10.024,10.247.365.592.766,1.531,1.251,2.377C551.132,310.845,550.233,316.747,545.9,318.376Zm-32.606-77.716a68.192,68.192,0,0,0,3.788,7.087,35.248,35.248,0,0,0,3.289,4.26c2.471,8.564,6.183,16.554,12.5,23.245,5.68,6.014,12.245,10.541,17.583,16.635.2,3.1.463,6.392.592,9.615-9.41-15.014-26.485-22.991-33.109-41.05A96.194,96.194,0,0,1,513.291,240.661Zm37.351,40.85a35.358,35.358,0,0,0-.276,8.956c-3.517-4.847-7.834-8.164-12.686-12.922-5.6-5.5-10.34-11.231-13.22-18.6-.5-1.291-.841-2.689-1.242-4.046A67.756,67.756,0,0,0,535.388,264c3.423,2.012,12.918,6.178,17.449,10.8A42.842,42.842,0,0,0,550.642,281.511Zm3.272-9.165c-4.763-5.929-15.406-11.137-19.167-13.71-18.019-12.33-22.332-31.137-24.438-51.306.352-2.422.65-4.861,1.162-7.242a81.52,81.52,0,0,1,4.469-13.149c-.877,12.709.548,25.666,6.45,37.035,4.358,8.386,10.932,14.747,17.788,21.055,4.616,4.242,9.481,8.244,12.98,13.59,1.073,1.638,2.341,5.609,3.757,7.995Q555.3,269.416,553.914,272.345Zm3.459-6.512c-6.268-15.437-19.71-22.742-29.365-36.265-10.781-15.1-10.692-31.56-9.708-48.738.365-1,.739-2,1.059-3,.2.543.441,1.068.654,1.607-1.086,11.818.694,24.019,6.664,34.271a47.92,47.92,0,0,0,15.535,15.775c7.589,4.945,22.07,9.526,25.217,19.288C564.633,254.567,560.778,260.046,557.373,265.833Zm10.5-18.077c-3.249-11.783-21.224-16.733-29.454-23.481-13.385-10.977-16.906-25.426-16.773-41.086a53.554,53.554,0,0,0,2.964,5.257c1.424,8.435,1.491,15.415,10.167,21.4,5.724,3.944,12.157,5.5,18.731,7.465a44.116,44.116,0,0,1,16.79,8.644C572.356,234.255,570.851,241.235,567.873,247.756Zm-6.579-38.335c2.64,3.245,5.35,6.548,7.158,10.87.405.966.672,1.874.984,2.8-6.641-6.472-17.12-7.563-25.773-11.039-7.443-2.987-14.124-7.336-16.768-15.264a23.132,23.132,0,0,1-.841-6.156,38.368,38.368,0,0,0,3.16,3.9C537.609,203.412,551.141,203.047,561.294,209.421Zm-16.225-13.465c-10.728-4.024-21.34-13-21.807-25.2,2.306,3.837,8.253,7.184,10.946,8.337,6.3,2.7,14.859,2.057,19.978,6.868a19.747,19.747,0,0,0,1.509,15.442A48.589,48.589,0,0,0,545.069,195.956Zm10.581-18.041a30.955,30.955,0,0,1-1.269,7.18,11.548,11.548,0,0,0-4.785-3.2c-9.165-3.338-20.583-3.739-25.132-12.775,2.778,2.2,8.992,2.924,10.9,2.916,4.981-.018,13.777-3.307,19.279-1.62A30.711,30.711,0,0,1,555.65,177.915Zm-1.278-8.707a22.171,22.171,0,0,0-8.631-.022c-7.87,1.229-17.645,3.534-22.114-5.181-.022-.049-.049-.036-.076-.071a14.325,14.325,0,0,0-3.343-6.147,35.369,35.369,0,0,0,11.649-5.115,35.782,35.782,0,0,0,9.214-9.646C545.839,150.517,551.809,159.918,554.372,169.208ZM543.534,67.415c.922-9.023-.058-22.1,1.887-33.389.169,1.558.423,3.214.788,4.963a2.615,2.615,0,0,0-.214.637c-.761,10.719,1.4,22.261,4.723,33.786a80.358,80.358,0,0,0-3.851,18.308,71.2,71.2,0,0,0,.325,15.758c1.558,10.349,7.349,18.989,8,29.374C530,115.036,540.435,97.858,543.534,67.415Zm17,73.727c-1.616-1.211-3.049-2.395-4.447-3.579-.009-.085,0-.085-.013-.191-.009-.151-.116-.036-.16.053l-.022-.018c.775-5.907-1.117-10.434-3.12-15.882-3.129-8.489-5-15.931-4.692-24.892a91.845,91.845,0,0,1,1.331-13.488,46.255,46.255,0,0,1,2.234-6.512c1.941,6.316,4.171,12.584,6.485,18.7-1.456,9.094-2.6,18.718-.574,27.79,1.74,7.8,7,13.982,8.239,21.731C564.094,143.711,562.349,142.509,560.533,141.143Zm5.978,4.189c.045-5.983-2.671-9.548-5.368-15.713-4.612-10.523-2.965-21.059-2.159-31.992,2.457,6.419,4.937,12.628,7.118,18.464,5.627,15.045,13.884,28.221,18.38,43.619C579.465,153.477,573.478,149.974,566.511,145.331Zm37.6,59.314c-6.557-11.809-7.959-23.41-14.458-36.768-.174-.361-.37-.632-.548-.975,2.159-16.109,7.087-34.854,4.91-51.6C603.35,144.258,591.924,177.261,604.107,204.645ZM587.593,101.557c.454,5.31,3.8,12.085,4.3,16.8a99.854,99.854,0,0,1-.886,25.4,192.286,192.286,0,0,0-2.31,22.412,43.259,43.259,0,0,0-3.37-5.333c-3.027-12.33-6.076-24.211-11.342-37.053-7.527-18.362-14.062-39.425-19.336-59.83a49.993,49.993,0,0,0,2.462,4.928c.579.935,1.286,1.767,1.892,2.68a1.359,1.359,0,0,0,.209,1.108c.405.356.837.61,1.246.953A130.226,130.226,0,0,0,587.593,101.557Z" transform="translate(988.788)"/>
    <path id="Path_2454" data-name="Path 2454" class="cls-2" d="M330.863,39.7c-12.473-1.812-10.056,19.038.57,16.163.067-.018.062-.129.107-.187a8.786,8.786,0,0,0,7.8-5.751C341.079,44.548,335.5,40.368,330.863,39.7Zm6.6,10.683a9.081,9.081,0,0,1-6.419,4.264l-.156-.071c3.045.085,3.374-6.855.24-7.064-3.014-.2-3.361,6.294-.539,6.931-4.082-1.7-7.874-3.833-6.174-9.045,1.277-3.913,4.336-4.349,7.972-3.312C335.862,43.07,339.877,46.057,337.464,50.379Z" transform="translate(1112.641 136.617)"/>
    <path id="Path_2455" data-name="Path 2455" class="cls-2" d="M323.509,31.687c-5.19-.356-9.6,5.542-8.8,10.412a10.239,10.239,0,0,0,6.4,7.719,5.878,5.878,0,0,0,4.046.013c3.405-.294,6.454-4.523,6.775-7.634C332.429,37.318,328.548,32.034,323.509,31.687ZM328.686,46.3c-3.174.588-5.186,2.186-8.547.316-6.975-3.886-1.331-15.727,5.9-11.823C330.248,37.069,330.916,42.824,328.686,46.3Z" transform="translate(1085.609 109.309)"/>
    <path id="Path_2456" data-name="Path 2456" class="cls-2" d="M334.791,47.288c9.219-1.656,4.946-20.334-6.263-18.8C314.44,30.422,328.4,53.08,334.791,47.288Zm-6.37-16.368c1.545-.957,4.26.267,5.5,1.01,2.288,1.375,3.289,3.441,3.975,5.88.677,2.4.2,5.711-1.7,7.572a5.1,5.1,0,0,1-1.019.418c-.08-.1-.089-.267-.231-.276-3.294-.1-4.977-.494-7.407-2.973a9.536,9.536,0,0,1-2.813-4.131Q326.572,34.669,328.421,30.921Z" transform="translate(1112.643 98.021)"/>
    <path id="Path_2457" data-name="Path 2457" class="cls-2" d="M326.128,41.332c.022-.009.018-.049.036-.067a5.308,5.308,0,0,0,2.782-2.319,16.028,16.028,0,0,0,2.426-8.845c-.249-4.941-2.586-9.379-8.093-8.386C310.068,24.1,316.6,46.669,326.128,41.332ZM317.853,34.2c-1.148-4.576.97-10.421,6.486-10.38,2.7.022,3.753,1.2,4.843,3.387,2.421,4.861-.343,10.145-4.451,12.6C321.7,38.928,318.645,37.334,317.853,34.2Z" transform="translate(1089.791 74.461)"/>
    <path id="Path_2458" data-name="Path 2458" class="cls-2" d="M314.533,46.655c.036-.022.027-.1.053-.142,7.83-1.843,5.751-20.035-1.7-16.608C306.076,33.034,308.488,51.1,314.533,46.655ZM310.767,36.3a5.848,5.848,0,0,1,1.8-3.53q8.293,3.238,4.135,9.041a4.532,4.532,0,0,1-2.195,3.77l-.018-.04C311.2,44.429,309.966,39.6,310.767,36.3Z" transform="translate(1065.428 101.73)"/>
    <path id="Path_2459" data-name="Path 2459" class="cls-2" d="M314.817,20.575c-10.358-1.807-8.466,19.127-.182,14.694C321.984,35.135,323.012,22.008,314.817,20.575Zm-3.605,11.062c.08.013.129.071.209.08,3.25.218,3.61-7.171.316-7.4-.084,0-.142.049-.227.053.73-1.26,1.972-1.919,4.131-.97,1.465.645,3.3,3.721,3.543,5.132.387,2.257-1.362,3.824-3.343,4.807-.036-.013-.022-.093-.067-.089-1.309.138-2.444.476-3.7-.045C311.759,33.079,311.466,32.442,311.212,31.637Z" transform="translate(1061.805 70.628)"/>
    <path id="Path_2460" data-name="Path 2460" class="cls-2" d="M333.775,36.708c.129-.049.134-.227.192-.361a5.291,5.291,0,0,0,3.463-3.9c1.4-5.5-1.95-10.977-6.851-13.456-4.678-2.368-8.248,2.947-8.061,7.549C322.722,31.825,328.3,38.845,333.775,36.708Zm-5.2-11.346c-.614,3,.312,6.717,3.094,6.908,2.212.147,3.459-2.163,3.69-4.665,1.251,3.614-.512,6.437-3.948,7.113-2.444-.961-5.342-2.729-5.871-4.914C325.473,29.519,327.084,27.32,328.576,25.362Z" transform="translate(1112.849 63.536)"/>
    <path id="Path_2461" data-name="Path 2461" class="cls-2" d="M340.573,41.69c-.12.085-.174.356-.013.361,17.974.427,4.781-27.9-5.511-18.077-4.109,3.926-3.045,9.183-.289,13.554C336.7,40.595,338.6,41.623,340.573,41.69Zm2.671-.4a19.548,19.548,0,0,0,2.426-.984A7.857,7.857,0,0,1,343.244,41.293Zm-8.275-14.28c6.339-9.824,18.7,7.95,10.808,13.207.267-.2.356-1.033-.071-.961l-.392.058a.483.483,0,0,0-.383.414c-.441,1.54-7.87-2.377-7.109-1.754C335.2,35.823,332.823,30.343,334.969,27.014Z" transform="translate(1146.714 75.589)"/>
    <path id="Path_2462" data-name="Path 2462" class="cls-2" d="M305.246,48.639c-1.273,2.235-2.426,8.15-.134,9.926.36.28.516-.561.418-.766-1.994-4.1,1.033-12.272,6.357-10.185a5.035,5.035,0,0,1,2.617,2.221,1.75,1.75,0,0,0-1.206-.374c-2.528.418-3.5,6.37-1,7.354l.156.062a1.813,1.813,0,0,0,1.286.071c-2.039,3.045-5.684,4.874-8.293,1.772l-.022.018c1.887,4.037,7.692,2.8,9.628-.329,1.745-2.822,2.074-8.052-.156-10.705A5.851,5.851,0,0,0,305.246,48.639Z" transform="translate(1048.275 157.293)"/>
    <path id="Path_2463" data-name="Path 2463" class="cls-2" d="M303.707,53.576c.249-.058.3-.365.245-.645a7.749,7.749,0,0,0,7.135-3.463c2.435-3.4,1.918-8.818-2.582-10.238C298.134,35.958,294.047,55.713,303.707,53.576Zm-1.469-11.355c5.885-5.92,12.339,4.011,5.822,8.489a8.467,8.467,0,0,1-4.785,1.571C298.485,50.58,299.113,45.368,302.238,42.221Z" transform="translate(1029.066 134.127)"/>
    <path id="Path_2464" data-name="Path 2464" class="cls-2" d="M354.073,16.692c8.319,2.591,17.267,4.478,26.076,6.352v-.258c-5.057-1.518-10.136-2.965-15.353-4.158C361.431,17.854,357.763,17.315,354.073,16.692Z" transform="translate(1221.782 57.609)"/>
    <path id="Path_2465" data-name="Path 2465" class="cls-2" d="M336.358,34.535c-2.208-.147-2.453,4.879-.214,5.03C338.352,39.712,338.6,34.687,336.358,34.535Z" transform="translate(1154.503 119.182)"/>
    <path id="Path_2466" data-name="Path 2466" class="cls-2" d="M326.566,37.326c3.12.209,3.463-6.886.3-7.1C323.748,30.017,323.405,37.113,326.566,37.326Z" transform="translate(1119.217 104.306)"/>
    <path id="Path_2467" data-name="Path 2467" class="cls-2" d="M320.215,23.286c-2.3-.837-3.6,3.971-2.057,5.083C321.5,30.778,322.8,24.226,320.215,23.286Z" transform="translate(1095.517 80.033)"/>
    <path id="Path_2468" data-name="Path 2468" class="cls-2" d="M318.6,33.46c-3.116-.209-3.463,6.886-.3,7.1C321.418,40.769,321.765,33.673,318.6,33.46Z" transform="translate(1090.687 115.464)"/>
    <path id="Path_2469" data-name="Path 2469" class="cls-2" d="M311.757,31.182c-2.195-1.037-2.88,2.23-2.4,3.788.053.174.1.347.156.516.156.507.837,1.4,1.491,1.019l.325-.187C312.736,35.5,313.64,32.072,311.757,31.182Z" transform="translate(1066.945 106.929)"/>
    <path id="Path_2470" data-name="Path 2470" class="cls-2" d="M336.828,26.386c1.269-2.021-1.838-4.349-2.239-1.58C334.361,26.373,335.572,28.389,336.828,26.386Z" transform="translate(1154.439 81.229)"/>
    <path id="Path_2471" data-name="Path 2471" class="cls-2" d="M301.511,45.083c2.315.374,3.063-4.9.717-5.279C299.913,39.43,299.165,44.7,301.511,45.083Z" transform="translate(1035.433 137.31)"/>
    <path id="Path_2472" data-name="Path 2472" class="cls-2" d="M153.37,25.186c-.77,6.045-1.727,13.216-3.739,19.759a56.329,56.329,0,0,1,2.114,9.392,56.836,56.836,0,0,0,4.233-8.458c6.3-15.775,4.594-30.06.953-45.88h-6.468C152.471,8.284,154.465,16.577,153.37,25.186Z" transform="translate(516.187)"/>
    <path id="Path_2473" data-name="Path 2473" class="cls-2" d="M159.444,63.6q-.08,2.263-.347,4.509a85.248,85.248,0,0,0,18.451-45.3c.16,1.068.325,2.132.467,3.2a198.784,198.784,0,0,1,.726,42.35c-4.229,8.337-21.3,17.587-28.168,23.565l-3.036,6.058c5.969-5.983,27.5-18.028,30.883-25.938-.37,3.957-.841,7.892-1.362,11.8.04.134-1.242,7.411,4.153,16.621.182.312,2.933,6.508,4.8,9.05a62.983,62.983,0,0,0,7.736,8.7c6.962,5.711,18.771,8.017,21.34,8.333,4.972.5,7.768-.325,10.746-2.444a21.272,21.272,0,0,0,3.459,5.631c-2.871.926-4.919,3.979-6.361,7.269a17.256,17.256,0,0,0-1.5,3.525l.111.187c-.249.77-.467,1.509-.654,2.19a28.716,28.716,0,0,0,.534,18.063,8.811,8.811,0,0,0,1.349,2.742,64.431,64.431,0,0,0,5.342,5.956,17.239,17.239,0,0,0,5.84,2.746,10.277,10.277,0,0,0,3.022.5,23.049,23.049,0,0,0,10.719-1.767c-.583,8.4,5.818,15.976,14.7,17.124a7.942,7.942,0,0,0,6.29-1.847,11.963,11.963,0,0,0,4.892-14.676c.392.062.779.134,1.18.178a18.977,18.977,0,0,0,2.168.093,1.883,1.883,0,0,0,1.389.174,7.423,7.423,0,0,1,1.344-.16c.147-.027.258-.227.156-.307,10.652-1.99,15.98-14.2,16.243-26.241,5.043,6.641,11.711,12.433,20.543,10.959a12.272,12.272,0,0,0,9.708-8.769c.864-2.755,1.433-6.374.12-9.032a25.356,25.356,0,0,0,4.166.387c11.111.085,19.782-8.68,20.921-19.564a21.932,21.932,0,0,0,.049-3.971c15.268-2.373,18.851-22.172,6.379-30.354a23.714,23.714,0,0,0-4.433-10.461c10.6-.788,14.088-6.708,19.933-15.566,4.7-7.113,6.7-14.347,20.173-5.155,3.557,2.426,6.788,5.039,10.946,6.339,18.816,5.862,38.847-10.256,56.959-1.665a89.824,89.824,0,0,0,7.857,8.952c4.358,4.313,9.864,10,15.971,11.738,7.184,2.043,12.78-2.368,12.628-8.431-.249-10.06-5.03-19.305-11.507-26.841-5.19-6.04-8.965-9.753-10.122-17.52-.935-6.232.347-14.627-1.237-20.739A53.816,53.816,0,0,0,473.218,0h-7.006a52.623,52.623,0,0,1,2.724,9.17A71.659,71.659,0,0,0,451.87,0h-7.821a81.684,81.684,0,0,1,25.324,11.369c1.224,6.579,1.861,13.367,3.33,19.377a36.326,36.326,0,0,0,1.482,4.692A89.573,89.573,0,0,0,443.4,22.706a100.155,100.155,0,0,0-25.43-2.043,84.748,84.748,0,0,0-13.26,1.46,235.38,235.38,0,0,0-36.7-3.659c4.2-1.834,8.239-4.113,11.934-6.129C388.8,7.5,397.443,2.635,407.16,0h-8.685a108.932,108.932,0,0,0-13.131,6.1c-5.511,3-10.924,6.214-16.643,8.8a60.659,60.659,0,0,1-10.309,3.383c-5.809-.04-11.471.022-16.879.116-5.631.1-11.293.223-16.96.3a120.785,120.785,0,0,0,14.6-6.94C345.723,8.19,351.986,4.064,358.285,0h-8.008c-.356.227-.708.45-1.059.677-7.808,4.968-15.744,9.762-24.371,13.18-6.49,2.573-13.234,3.147-19.826,4.736-6.886-.218-13.75-.686-20.57-1.54,1.1-.267,2.168-.543,3.2-.837,12.495-3.574,24.166-9.842,35.6-16.216H311.884c-5.07,2.617-10.189,5.123-15.433,7.354-6.962,2.96-14.333,5.435-21.9,6.2a38.569,38.569,0,0,1-13.171-1.2A155.661,155.661,0,0,1,231.369,0H219.2a177.679,177.679,0,0,0,27.758,14.712c.165.071.334.129.5.2a59.118,59.118,0,0,1,8.6,7.825c1.331,1.487,2.6,3.022,3.828,4.585a38.762,38.762,0,0,0-7.314-3.6c-2.462-.913-4.945-1.647-7.429-2.306-3.641-4.171-8.23-7.34-12.967-10.3C226.361,7.487,221.34,4.247,217.236,0H213.96A45.607,45.607,0,0,0,219.5,5.092c7.425,5.831,15.856,9.553,22.906,15.629-9.646-2.359-19.243-4.006-27.767-10.287A45.484,45.484,0,0,1,204.407,0h-7.736A61,61,0,0,0,222.76,22.978c.984.45,1.99.846,3,1.215a13.323,13.323,0,0,0-5.195,6.717c-.832-.583-1.66-1.175-2.466-1.807A85.078,85.078,0,0,1,199.747,9.459c-2.012-3-4.109-6.165-6.121-9.459H188.6c2.3,4.126,4.723,8.173,7.3,12.019a94.944,94.944,0,0,0,19.862,21.714c5.364,4.229,12.05,9.041,19,11.364a23.646,23.646,0,0,0-9.552,7.113c-6.161-5.965-12.691-11.587-19.363-16.96-2.266-1.825-7.5-7.354-10.857-4.545-4,3.347,3.2,12.174,4.322,14.867,3.063,7.331,4.26,15.126,6.615,22.631a15.043,15.043,0,0,0-3.815,2.466,13.1,13.1,0,0,0-1.562,1.629c-.067,0-.133.022-.2.027.743-5.569-1.927-10.968-4.336-15.954-3.721-7.7-8.578-14.805-12.286-22.484A200.135,200.135,0,0,0,179.27,6.819c-.543-2.266-1.082-4.549-1.625-6.819H172.9c1.349,5.635,2.613,11.289,3.659,16.982A87.166,87.166,0,0,1,159.444,63.6Zm65.025,55.9c-4.055.944-6.739,2.346-11.182.9-5.284-1.714-9.379-6.695-8.03-12.522,2.4-10.412,15.281-10.131,20.262-2.315A28.307,28.307,0,0,0,224.469,119.509Zm4.482-7.091c1.251-6.161,4.447-11.507,7.745-16.75,6.753,6.067,15.255,10,23.338,8.15.81,5.119,1.286,10.2-.654,15.286a21.039,21.039,0,0,1-1.852,3.708,1.752,1.752,0,0,0-.4.392,14.686,14.686,0,0,0-.979,1.558,17.753,17.753,0,0,1-14.035,7.135C231.649,131.741,227.064,121.713,228.952,112.418ZM244.1,165.456c-7.26,2.68-16.14,1.206-17.5-7.919a26.217,26.217,0,0,1,2.8-15.157c1.687-3.405,4.278-5.315,4.727-8.56a19.064,19.064,0,0,0,6.156,2.355,18.8,18.8,0,0,0,13.1-1.95,50.439,50.439,0,0,0,1.407,19.55,29.3,29.3,0,0,0,1.625,4.091C252.241,160.323,248.8,163.715,244.1,165.456Zm18.549,19.831c-9.321-.174-12-8.569-10.109-16.359a1.24,1.24,0,0,0,.009-.445,23.686,23.686,0,0,0,6.3-6.472,23.049,23.049,0,0,0,14.057,9.637A10.55,10.55,0,0,1,262.648,185.286ZM291.03,145.8c-1.255,8.324-6.245,19.221-16.02,19.27-20.271.107-13.283-27.242-13.523-39.408a26.334,26.334,0,0,0,2.666-7.776c6.851,5.827,15.464,10.71,24.718,9.86.151-.013.3-.045.454-.058C290.389,133.8,292.014,139.246,291.03,145.8Zm37.026-77.6a59.581,59.581,0,0,0,14.534,5.591,4.941,4.941,0,0,0-3.534,4.678,5.913,5.913,0,0,0,3,5.4c1.9,1.064,4.278,1.135,5.533-.806.2-.307-.3-.761-.592-.694-3.134.7-7.162-.227-5.84-4.385a4.777,4.777,0,0,1,6.686-2.933c.027.031.044.067.071.1,2.987,3.57,5.27,8.413,3.81,13.131-1.669,5.408-5.925,6.343-9.811,9.174a29.49,29.49,0,0,0-5.506-3.779,28.667,28.667,0,0,0-12.419-3.227,21.164,21.164,0,0,0,5.689-14.845A26.748,26.748,0,0,0,328.056,68.2Zm-3.312,8.266c-.73,6.668-5.159,10.078-9,14.792a33.216,33.216,0,0,0-12.152,5.569,33.98,33.98,0,0,0-4.821-7.6c-4.594-5.5-13.777-13.341-21.651-14.013a36.728,36.728,0,0,0-5.742-15.824c2.119-1.362,3.646-3.877,5.626-5.56,1.66-1.416,3.41-2.684,5.128-3.993.944.2,1.9.378,2.871.525,6.379.948,12.29-2.893,18.317-.347,6.245,2.644,12.072,10.741,17.845,14.258l.209.125a11.408,11.408,0,0,1,.735.975A16.89,16.89,0,0,1,324.744,76.469Zm-47.4,2.622c4.6,3.566,10.242,5.72,14.609,9.748,5.4,4.99,9.415,12.014,8.2,19.608-1.033,6.459-5.453,11.618-11.916,12.958-8.885,1.843-16.425-3.494-23.129-8.529a4.9,4.9,0,0,0-.552-.365,24.372,24.372,0,0,0-2.123-9.415,21.724,21.724,0,0,0,8.551-6.152A26.617,26.617,0,0,0,277.346,79.091Zm45.933,59.1c.191,6.962-3.339,13.848-11.222,13.314-7.572-.512-12.246-7.834-16.029-13.545a4.08,4.08,0,0,0-.61-.708,28.46,28.46,0,0,0-3.672-9.989,18.112,18.112,0,0,0,9.326-5.511c5.15,6.112,11.738,12.081,19.314,15.143a8.521,8.521,0,0,1-1.353.841,8.123,8.123,0,0,1-3.708.734c-3.289-.107-5.1-2.341-6.566-5.012-.191-.347-.859-.619-.855-.018.027,3.334,3.325,6.049,6.361,6.744,2.373.539,6.272-.352,7.478-2.769.512.183,1.019.347,1.536.5C323.275,138.018,323.28,138.116,323.28,138.191Zm22.395-15.135a18.578,18.578,0,0,1-18.558,11.711c-10.251-.717-17.489-8.146-25.052-14.222a19.971,19.971,0,0,0,3.592-7.977,23.516,23.516,0,0,0-.236-10.5,1.552,1.552,0,0,0,.6-.227c7.812-5.2,16.991-8.484,26.356-5.462C343.457,99.963,350.339,111.964,345.674,123.057ZM357.96,90.233a16.363,16.363,0,0,0,.165-2.849,14.478,14.478,0,0,1-7.073,24.825,26.591,26.591,0,0,0-5.083-10.514,9.478,9.478,0,0,0,1.456-.209,6.208,6.208,0,0,0,8.391.218,6.4,6.4,0,0,0,1.006-7.959A12.563,12.563,0,0,0,357.96,90.233Zm-1.309,3.846c1.812,5.373-3.334,9.455-8.253,7.158A14.66,14.66,0,0,0,356.651,94.079Zm86.311-66.93a102.827,102.827,0,0,1,33.22,12.482,34.207,34.207,0,0,0,3.045,4.451c4.571,5.675,7.932,9.1,8.858,16.626.512,4.149,1.892,12.958-4.554,11.386-3.178-.77-6.744-5.017-9.076-7.144-3.463-3.156-6.824-6.316-10.3-9.379l-.094-.147c-10.981-15.206-38.606-21.763-56.229-27.135C415.618,27.8,435.293,25.72,442.962,27.149ZM387.441,28.68c23.886,2.23,45.2,9.085,64.348,22.355-11.342-1.335-23.2,2.671-34.6,3.623a33.984,33.984,0,0,1-12.054-.708c-5.128-1.447-8.377-5.217-12.7-8.052a16.888,16.888,0,0,0-5.195-2.328c-3.7-6.405-10.185-12.232-17.538-15.976C375.618,27.794,381.534,28.128,387.441,28.68Zm-32.566-1.358a52.686,52.686,0,0,1,14.538,4.135c6.125,2.947,10.8,7.033,15.313,11.729-4.892-.272-9.477,2.212-13.14,6.824-3.209,4.042-5.31,8.961-9.245,12.357-10.559-5.4-18.357-14.008-26.757-22.626-4.033-4.135-8.613-8.894-13.746-12.49C332.814,27.4,343.836,27.255,354.875,27.322ZM316.9,27.166a70.75,70.75,0,0,1,11.418,8.168c4.714,4.255,8.974,8.983,13.5,13.43,5.8,5.693,12.041,11.182,19.4,14.52l-.053.045a19.5,19.5,0,0,1-8.671,3.338c-14.226-7.759-23.939-19.893-35.86-30.7A86.221,86.221,0,0,0,304.651,26.7C308.724,26.926,312.81,27.073,316.9,27.166ZM293.1,25.8a48.117,48.117,0,0,1,13.082,5.9c6.4,4.3,11.956,9.65,17.422,15.054,7.883,7.794,16.59,16.443,27.331,20.084a32.056,32.056,0,0,1-8.173-.476c-12.268-2.226-21.9-10.527-32.584-16.35a74.973,74.973,0,0,0-7.4-3.561,49.134,49.134,0,0,1-8.453-9.682c-2.052-3.111-3.9-6.374-6.17-9.339-.628-.828-1.3-1.656-2.025-2.462C288.448,25.284,290.772,25.564,293.1,25.8Zm-38.344-8.128a154.266,154.266,0,0,0,26.289,6.557c4.549,3.619,7.376,8.355,11.217,13.683a45.921,45.921,0,0,0,6.232,7.006c-.645-.2-1.291-.423-1.945-.592-5.417-1.407-11.07-1.246-16.492-2.528-6.628-1.571-10.291-6.365-15.134-10.7-.436-.392-.886-.77-1.335-1.14A77.881,77.881,0,0,0,254.756,17.672ZM244.242,33.314a13.094,13.094,0,0,1,2.23-4.051c3.508.9,7.995-1.059,11.186.645,4.331,2.31,6.922,7.745,10.176,11.9a.672.672,0,0,0-.405-.178c-2.506.107-6.13.472-8.173-1.18-2.831-2.292-1.5-5.435.784-7.434.209-.183-.12-.543-.321-.548-4.153-.134-4.9,5.164-3.027,8a7.933,7.933,0,0,0,11.4,2.3.425.425,0,0,0,.076-.556,16.681,16.681,0,0,0,3.263,3.183,25.443,25.443,0,0,0,4.589,2.542,22.015,22.015,0,0,0-2.025,1.188c-2.288,1.522-4.874,3.37-6.147,5.773a28.284,28.284,0,0,0-7.336-5.653,25.679,25.679,0,0,0-15.081-5.934l-.027-.049A11.408,11.408,0,0,1,244.242,33.314Zm-20.423-.276a14.974,14.974,0,0,1,6.143-7.509c4.131,1.14,8.4,1.905,12.593,2.818a16.964,16.964,0,0,0-1.843,4.184,14.762,14.762,0,0,0,1.215,10.839c-.178.013-.356.018-.539.036a2.1,2.1,0,0,0-.343-.316C235.5,39.332,229.486,36.532,223.819,33.038Zm3.766,28.733a18.9,18.9,0,0,1,13.042-13.149c16.056-4.678,27.536,8.222,32.107,22.154.013.085.031.169.049.258,1.068,7-.85,14.351-6.014,19.341-12.286,11.885-26.512,5.017-34.208-7.946C228.88,76.224,225.76,69.076,227.585,61.771ZM213.942,51.7l.018.018c1.527.9,3,1.754,3.138,3.735a8.343,8.343,0,0,1-1.019,3.882c-.142.3.294.761.588.579,1.816-1.126,2.141-3.387,1.424-5.324-.588-1.594-2.212-3.5-4.051-3.539q.234-1.436.61-2.871c2.8,2.453,5.649,4.847,8.569,7.144a18.82,18.82,0,0,0-1.073,2.43,21.27,21.27,0,0,0-.921,9.5c-.414-.071-.828-.134-1.246-.2a2.649,2.649,0,0,0-.872-1.251C214.24,62.176,213.207,57.035,213.942,51.7ZM199.68,41.246c-1.518-2.862-3.628-6.2,2.417-4.536,1.941.534,4.758,4.469,6.178,5.764q1.789,1.629,3.6,3.254c-4.171,6.214-2.088,15.642,3.16,20.89a23.57,23.57,0,0,0-5.965.543C208,58.263,203.757,48.92,199.68,41.246ZM210.14,71.755c3.637-1.367,7.7-1.424,11.636-1.286a51.826,51.826,0,0,0,5.582,13.626,42.415,42.415,0,0,0,2.6,4.06,30.2,30.2,0,0,1-7.955,3.3c-5.942,1.2-13.51.405-17.6-4.567C199.373,80.769,203.722,74.168,210.14,71.755ZM199.9,86.529c5.7,9.339,21.682,12.637,31.346,6.868a63.325,63.325,0,0,0-4.892,9.784c-1.825-3.187-5.769-5.675-8.729-6.708A12.245,12.245,0,0,0,202,103.026a22.753,22.753,0,0,1-3.788-1.166,13.442,13.442,0,0,1-7.83-9.86.477.477,0,0,0,.325.169c4.416-.245,4.945-7.1,1.856-9.348-.08-.058-.165,0-.107.089a5.686,5.686,0,0,1,.85,4.981c-.565,1.643-1.861,2.35-3.027,3.481-.8-6.837,3.045-11.823,8.208-15.259A12.5,12.5,0,0,0,199.9,86.529ZM184.145,38.388c1.175,2.822,2.528,5.591,4.006,8.417,4.211,8.052,9.989,16.537,9.032,26a1.657,1.657,0,0,0,0,.209c-7.67,2.72-12.254,12.228-10.02,20.049a20.034,20.034,0,0,0,8.115,10.968,24.009,24.009,0,0,0,4.62,2.475q.507,1.048.966,2.11a16.106,16.106,0,0,0,2.889,8.7c.369,1.571-10.167-2.47-14.676-7.745a37.156,37.156,0,0,1-7.616-14.035A242.75,242.75,0,0,0,184.145,38.388Z" transform="translate(398.96)"/>
    <path id="Path_2474" data-name="Path 2474" class="cls-2" d="M179.366,0H168.759A82.659,82.659,0,0,0,179.366,0Z" transform="translate(582.204)"/>
    <path id="Path_2475" data-name="Path 2475" class="cls-2" d="M177.472,17.795a10.481,10.481,0,0,0-3.169-.4,3.8,3.8,0,0,0-2.426,1.821c-.534,1.522.717,3.1,2.114,3.588a3.053,3.053,0,0,0,1.536.116,5.162,5.162,0,0,0,1.794-.343,6.466,6.466,0,0,0,1.692-2.177C179.6,19.513,178.344,17.937,177.472,17.795Z" transform="translate(592.529 59.903)"/>
    <path id="Path_2476" data-name="Path 2476" class="cls-2" d="M184.843,29.316l.307-.539c.6-1.046-.41-2.364-1.1-3.031a4.429,4.429,0,0,0-3.054-1.638,3.688,3.688,0,0,0-2.1.926c-.588.4-.472,1.358-.28,1.914a3.837,3.837,0,0,0,1.678,1.972,7.912,7.912,0,0,0,2.275,1.162A1.872,1.872,0,0,0,184.843,29.316Z" transform="translate(615.672 83.204)"/>
    <path id="Path_2477" data-name="Path 2477" class="cls-2" d="M196.664,31.477a3.892,3.892,0,0,0,.32-2.933,3.8,3.8,0,0,0-2.555-3,3.989,3.989,0,0,0-2.729.049,7.634,7.634,0,0,0-1.754,1.442c-1.331,1.389-1.05,4.224.125,5.6,1.126,1.322,3.77,1.887,5.208.659A8.744,8.744,0,0,0,196.664,31.477Z" transform="translate(652.281 87.382)"/>
    <path id="Path_2478" data-name="Path 2478" class="cls-2" d="M179.6,39.788a3.628,3.628,0,0,0,1.972-.645,10.415,10.415,0,0,0,.93-.9,2.17,2.17,0,0,0,.343-2.337,4.5,4.5,0,0,0-1.282-1.861,3.23,3.23,0,0,0-2.867-.823,3.658,3.658,0,0,0-2.408.9,2.8,2.8,0,0,0-.018,3.365,5.9,5.9,0,0,0,1.193,1.4A3.537,3.537,0,0,0,179.6,39.788Z" transform="translate(606.215 114.5)"/>
    <path id="Path_2479" data-name="Path 2479" class="cls-2" d="M190.154,17.883c.677-1.309-1.162-3.334-2.511-2.947-1.963.556-4.367,1.153-5.306,3.214-.9,1.985,1.616,4.754,3.646,4.282C188.16,21.93,189.224,19.677,190.154,17.883Z" transform="translate(628.415 51.384)"/>
    <path id="Path_2480" data-name="Path 2480" class="cls-2" d="M172.122,27.456c.076-.138-.1-.329-.236-.334a5.453,5.453,0,0,0-2.417.049c-.32.156-.619.383-.926.57a1.092,1.092,0,0,0-.61.846c-.129.507.458,1.18.917,1.286a2.9,2.9,0,0,0,2.132-.565C171.6,28.934,171.792,28.07,172.122,27.456Z" transform="translate(579.291 93.188)"/>
    <path id="Path_2481" data-name="Path 2481" class="cls-2" d="M172.86,39.1l.053-.107c.779-1.567-.743-3.566-2.034-4.273a2.476,2.476,0,0,0-.392-.2,1.983,1.983,0,0,0-1.874-.147,1.457,1.457,0,0,0-.668,1.58c.071.356.156.708.258,1.055A3.744,3.744,0,0,0,172.09,39.7,1.1,1.1,0,0,0,172.86,39.1Z" transform="translate(579.278 118.025)"/>
    <path id="Path_2482" data-name="Path 2482" class="cls-2" d="M172.969,39.787c-2.6,2.11,2.284,7.914,4.914,5.778C180.479,43.455,175.6,37.646,172.969,39.787Z" transform="translate(594.187 135.71)"/>
    <path id="Path_2483" data-name="Path 2483" class="cls-2" d="M167,25.576a4.5,4.5,0,0,0-3.063-1.692,1.966,1.966,0,0,0-1.905,2.408l.04.423a4.472,4.472,0,0,0,3.014,3.539l.423.125a1.953,1.953,0,0,0,2.573-1.171A4.087,4.087,0,0,0,167,25.576Z" transform="translate(558.945 82.431)"/>
    <path id="Path_2484" data-name="Path 2484" class="cls-2" d="M162.355,18.15c-1.447,1.18,1.278,4.425,2.747,3.227C166.552,20.2,163.824,16.957,162.355,18.15Z" transform="translate(558.682 61.747)"/>
    <path id="Path_2485" data-name="Path 2485" class="cls-2" d="M195.024,20.5c1.3-1.055-1.144-3.957-2.457-2.889a2.451,2.451,0,0,0-1.042,1.224,1.95,1.95,0,0,0,.494,1.691,2.082,2.082,0,0,0,1.433.792A2.527,2.527,0,0,0,195.024,20.5Z" transform="translate(660.62 59.976)"/>
    <path id="Path_2486" data-name="Path 2486" class="cls-2" d="M169.858,24.365c.12,3.192,2.609,6.419,5.947,6.325.628-.018.071-.85-.231-.957-7.616-2.72-3.387-10.973,2.524-12.17a9.354,9.354,0,0,1,7.612,1.562c2.844,2.413,2.39,5.711.868,8.6-.027.045.049.147.1.12,2.938-1.5,2.862-5.6,1.193-8.084-2.172-3.241-6.481-4.416-10.162-3.833C173.544,16.593,169.689,19.843,169.858,24.365Z" transform="translate(585.979 54.499)"/>
    <path id="Path_2487" data-name="Path 2487" class="cls-2" d="M187.088,36.806c.387-.365-.272-1.015-.672-.944-3.365.61-7.131-.694-6.859-4.8a6.4,6.4,0,0,1,4.776-5.578,5.575,5.575,0,0,1,6.886,4.158c.5,2.524-.65,4.353-1.531,6.57-.071.178.151.476.347.41,3.837-1.282,3.868-6.713,2.07-9.606-2.106-3.383-6.495-5.155-10.22-3.468A7.678,7.678,0,0,0,178.07,33.8C179.619,37.113,184.03,39.686,187.088,36.806Z" transform="translate(611.842 79.044)"/>
    <path id="Path_2488" data-name="Path 2488" class="cls-2" d="M193.6,24.973a8.7,8.7,0,0,0-5.181,11.244c1.148,2.778,6.04,7.532,9.237,5.146.329-.245-.151-.77-.4-.846-3.347-1.073-6.539-1.237-7.638-5.315-.957-3.534,1.651-7.385,4.928-8.6a7.769,7.769,0,0,1,9.735,4.612c1.407,4.024-.61,7.683-3.178,10.621-.1.116.076.383.223.312C211.418,37.393,203.668,21.377,193.6,24.973Z" transform="translate(647.983 84.391)"/>
    <path id="Path_2489" data-name="Path 2489" class="cls-2" d="M188.309,13.511c-5.96,1.269-10.216,7.144-8.489,13.212,1.2,4.22,7,9.308,11.4,6.17.561-.4-.334-1.3-.775-1.322-2.034-.1-3.962.174-5.822-.961a6.9,6.9,0,0,1-2.9-7.5c.85-4.229,4.763-7.055,8.871-7.478,11.142-1.148,13.848,12.455,6.1,18.544-.142.116.107.423.258.361C210.09,28.935,200.733,10.871,188.309,13.511Z" transform="translate(619.043 45.727)"/>
    <path id="Path_2490" data-name="Path 2490" class="cls-2" d="M175.228,35.856c-1.736,3.241-1.491,7.923,1.491,10.323.307.249.748.116.592-.329-.97-2.791-1.647-5.6-.089-8.36a7,7,0,0,1,6.713-3.6,6.294,6.294,0,0,1,6.116,6.908c-.231,2.64-1.883,5.012-3.472,7.038-.107.138.076.338.223.316,4.028-.623,5.787-4.736,5.3-8.542a9.424,9.424,0,0,0-6.966-7.7A8.506,8.506,0,0,0,175.228,35.856Z" transform="translate(600.787 108.967)"/>
    <path id="Path_2491" data-name="Path 2491" class="cls-2" d="M178.055,48.163c-3.5.312-7.456.868-9.472-2.849a7.457,7.457,0,0,1,2.7-9.744c3.312-1.892,7.861-1.068,9.8,2.341,1.959,3.445.53,7.527-1.767,10.4-.04.049.031.165.094.134,4.2-2.016,5.177-7.527,2.884-11.409a9.386,9.386,0,0,0-12.192-3.307c-4.184,2.27-5.141,7.9-3.031,11.921,1.936,3.69,8.012,6.811,11.569,3.512C178.99,48.84,178.447,48.128,178.055,48.163Z" transform="translate(572.654 112.841)"/>
    <path id="Path_2492" data-name="Path 2492" class="cls-2" d="M184.261,46.5c-.009.089.147.223.178.1a6.667,6.667,0,0,0-7.14-8.324c-4.941.507-7.817,6.619-4.251,10.412.249.263.726.285.592-.2-.886-3.187-.432-6.811,2.987-8.253C180.936,38.429,184.657,42.191,184.261,46.5Z" transform="translate(591.522 132.003)"/>
    <path id="Path_2493" data-name="Path 2493" class="cls-2" d="M169.217,30.546a5.946,5.946,0,0,1,6.308-2.724,4.907,4.907,0,0,1,3.129,6.575c-.921,2.177-2.853,2.711-4.6,3.953-.129.089.062.28.147.312,3.112,1.175,6.192-1.95,6.548-4.914a7.536,7.536,0,0,0-4.767-7.541c-7.184-2.764-13,7.745-6.583,12.094.405.276.815.018.534-.458C168.634,35.594,167.779,32.95,169.217,30.546Z" transform="translate(574.864 88.87)"/>
    <path id="Path_2494" data-name="Path 2494" class="cls-2" d="M160.26,24.551c-.044,3.579,2.822,9,6.859,9.13.628.022.258-.828,0-1.033-2.657-2.177-5.506-4.229-4.91-8.177a7.438,7.438,0,0,1,6.107-6.223c3.512-.454,7.113,2.368,6.748,6.089a6.8,6.8,0,0,1-5.342,6.085c-.249.049.04.485.223.476a6.86,6.86,0,0,0,6.632-7.6,8.6,8.6,0,0,0-8.017-7.038C164.08,16.107,160.318,20.162,160.26,24.551Z" transform="translate(552.87 56.098)"/>
    <path id="Path_2495" data-name="Path 2495" class="cls-2" d="M56.761,183.982c5.983-2.907,11.827-9.682,17.458-13.194,7.011-4.38,12.566-3.882,20.952-3.837,10.47.058,21.144-2.422,29.37-9.1,4.959-4.024,4.661-11.547-1.892-15.931-5.564-3.726-13.884-4.269-20.325-4.825a94.794,94.794,0,0,0-12.544-.2c-19.27-8.7-20.062-35.851-37.631-46.979-3.886-2.462-8.186-3.276-12.566-4.478C23.007,80.881,27.427,74.319,29.915,65.67c3.094-10.759,5.448-17.618-1.175-26.695a24.8,24.8,0,0,0,11.413-3.588C55.239,39.835,68.642,23.405,60.1,9.495a22.92,22.92,0,0,0,3.138-2.76A24.031,24.031,0,0,0,67.751,0H61.88C56.044,10.977,41.974,13.514,31.664,7.131A25.406,25.406,0,0,1,24.177,0H15.747c-.734,5.279-1.126,10.216-5.257,14.609A17.709,17.709,0,0,1,.069,20.035v7.932a51.074,51.074,0,0,1,14.654,8.057A33.839,33.839,0,0,1,20.7,42.279c-6.2-3.721-13.363-5.586-20.627-6.7v2.991A91.34,91.34,0,0,1,21.627,43.65a20.787,20.787,0,0,1,3.258,9.263.381.381,0,0,0,0,.071C17.2,49.361,8.571,48.088.069,47.313v1.967C8.62,50,16.931,51.195,24.916,54.52c-.027,5.488-2.528,10.545-3.57,15.891-1.189,6.1-.04,11.493,3.525,15.241C18.03,85.238,11.553,84.268,5,81.352a41,41,0,0,1-4.932-2.68V96.046a229,229,0,0,0,21.607,20.107,89.5,89.5,0,0,0,7.906,11.671,106.007,106.007,0,0,0,19.029,19.069,94.574,94.574,0,0,0,31.253,16.069,37.561,37.561,0,0,0-4.767,2.012c-5.818,2.929-11.694,7.064-17.8,10.576-21.09-5.969-39.563-19.617-50.144-39.23a82.4,82.4,0,0,1-7.082-19.15v10.162a75.785,75.785,0,0,0,8.177,16.207c10.995,16.332,27.919,28.586,46.993,33.167-6.521,3.548-13.327,6.17-20.627,5.68-.61-.04-1.206-.12-1.807-.2A104.591,104.591,0,0,1,.069,159.972v4.469a95.1,95.1,0,0,0,10.194,8.092A61.97,61.97,0,0,0,.1,167.931l-.036-.009V173.9C8.264,178.333,16,184.979,24.4,187.508,35.386,190.819,46.568,188.932,56.761,183.982ZM44.235,31.925A13.031,13.031,0,0,0,46.269,28.6a6.721,6.721,0,0,0,5.684-6.25,6.574,6.574,0,0,0-5.911-6.606,11.93,11.93,0,0,0-.832-1.318,27.854,27.854,0,0,0,11.9-3.1c5.911,11.151-2.5,24.033-15.041,22.675A16.564,16.564,0,0,0,44.235,31.925Zm2.27-15.219c5.208,2.386,5.457,9.321-.085,11.538A15.528,15.528,0,0,0,46.505,16.706ZM22.94,26.784c2.422-3.9,5.925-1.3,7.5,1.7.151.28.855.369.966,0,.69-2.341-.988-4.207-3.138-5.008a6.219,6.219,0,0,0-6.383,1.273A5.226,5.226,0,0,0,20.558,30.8a62.823,62.823,0,0,0-14.422-7.87,28.2,28.2,0,0,0,7.042-3.761A22.3,22.3,0,0,0,21.173,4.442a30.245,30.245,0,0,0,11.079,7.785,30.962,30.962,0,0,0,6.793,1.847c.4,5.066,2.555,9.125-.632,14.173-2.782,4.4-8.222,5.876-13.123,5.916-.045,0-.085.009-.129.009A5.061,5.061,0,0,1,22.94,26.784ZM15.11,97.764c-4.482-4.376-8.8-8.907-13.007-13.532,8.03,3.356,17.138,4.589,24.794,3.183a17.693,17.693,0,0,0,5.417,2.591c5.226,1.536,10.47,1.571,15.134,4.71a36.027,36.027,0,0,1,8.814,9.219c7.042,9.833,11.943,22.119,20.774,30.331C53.311,127.931,33.24,115.467,15.11,97.764ZM51.869,143.5c-6.392-5.195-18.188-22.457-23.12-29.058,16.359,10.514,40.507,28.261,60.2,26.695.058,0,.116-.013.178-.022,4.83.7,9.664,1.246,14.56,1.874,3.3.423,9.134.387,11.93,2.417,5.662,4.113-2.332,9.027-6,11.458-6.659,4.4-11.7,4.037-19.377,4.242a35.467,35.467,0,0,0-5.644.6A108.636,108.636,0,0,1,51.869,143.5Z" transform="translate(-310.502 28.478)"/>
    <path id="Path_2496" data-name="Path 2496" class="cls-2" d="M15.255.142c.08-.045.147-.1.223-.142H10.928L11.1.138A3.982,3.982,0,0,0,15.255.142Z" transform="translate(37.478)"/>
    <path id="Path_2497" data-name="Path 2497" class="cls-2" d="M9.612,8.525c.04,1.763-3.953,1.785-3.993,0a2.592,2.592,0,0,1,.267-1.678,2.036,2.036,0,0,1,1.692-.757A2.2,2.2,0,0,1,9.193,6.7,2.664,2.664,0,0,1,9.612,8.525Z" transform="translate(19.097 21.005)"/>
    <path id="Path_2498" data-name="Path 2498" class="cls-2" d="M26.92,0H24.948a8.444,8.444,0,0,1-3.7,2.773A8.213,8.213,0,0,1,11.981,0H9.711C13.495,6.263,23.256,5.288,26.92,0Z" transform="translate(33.278)"/>
    <path id="Path_2499" data-name="Path 2499" class="cls-2" d="M1.912,0H.826A11.885,11.885,0,0,1,.069,2.822V7.5A9.587,9.587,0,0,0,1.912,0Z" transform="translate(0)"/>
  </g>
</svg>
