<svg xmlns="http://www.w3.org/2000/svg" width="21.225" height="19.083" viewBox="0 0 21.225 19.083">
  <defs>
    <style>
      .cls-1 {
        fill: #d59c3b;
      }
    </style>
  </defs>
  <g id="Group_64" data-name="Group 64" transform="translate(-9.998 -966.397)">
    <path id="Path_2392" data-name="Path 2392" class="cls-1" d="M15.636,966.4a5.5,5.5,0,0,0-4,1.724,6.044,6.044,0,0,0,0,8.282l8.39,8.83a.8.8,0,0,0,1.152,0l8.4-8.821a6.042,6.042,0,0,0,0-8.282,5.5,5.5,0,0,0-8,0l-.97,1.02-.978-1.028A5.5,5.5,0,0,0,15.636,966.4Zm0,1.559a3.913,3.913,0,0,1,2.844,1.26l1.559,1.633a.8.8,0,0,0,1.152,0l1.55-1.625a3.836,3.836,0,0,1,5.687,0,4.465,4.465,0,0,1,0,6.094q-3.911,4.107-7.818,8.216l-7.818-8.224a4.466,4.466,0,0,1,0-6.094A3.913,3.913,0,0,1,15.636,967.956Z"/>
  </g>
</svg>
