<svg xmlns="http://www.w3.org/2000/svg" width="16.268" height="23" viewBox="0 0 16.268 23">
  <defs>
    <style>
      .cls-1 {
        fill: #d59c3b;
      }
    </style>
  </defs>
  <g id="Group_106" data-name="Group 106" transform="translate(-21 -961.361)">
    <path id="Path_2416" data-name="Path 2416" class="cls-1" d="M29.134,961.361A8.29,8.29,0,0,0,21,969.775a7.775,7.775,0,0,0,1.28,4.251l6.136,9.931a.842.842,0,0,0,1.437,0l6.136-9.931a7.775,7.775,0,0,0,1.28-4.251A8.29,8.29,0,0,0,29.134,961.361Zm0,1.683a6.584,6.584,0,0,1,6.451,6.732,5.849,5.849,0,0,1-1.034,3.366l-5.417,8.765-5.417-8.765a5.849,5.849,0,0,1-1.034-3.366A6.584,6.584,0,0,1,29.134,963.044Zm0,2.244a4.207,4.207,0,1,0,4.207,4.207A4.22,4.22,0,0,0,29.134,965.288Zm0,1.683A2.524,2.524,0,1,1,26.61,969.5,2.512,2.512,0,0,1,29.134,966.971Z" transform="translate(0 0)"/>
  </g>
</svg>
