<svg xmlns="http://www.w3.org/2000/svg" width="76" height="76" viewBox="0 0 76 76">
  <defs>
    <style>
      .cls-1, .cls-3 {
        fill: #d59c3b;
      }

      .cls-1 {
        opacity: 0.3;
      }

      .cls-2 {
        fill: #fafafa;
      }
    </style>
  </defs>
  <g id="Group_200" data-name="Group 200" transform="translate(-902 -1219)">
    <g id="Group_199" data-name="Group 199">
      <g id="Group_198" data-name="Group 198">
        <circle id="Ellipse_15" data-name="Ellipse 15" class="cls-1" cx="38" cy="38" r="38" transform="translate(902 1219)"/>
      </g>
    </g>
    <circle id="Ellipse_18" data-name="Ellipse 18" class="cls-2" cx="34" cy="34" r="34" transform="translate(906 1223)"/>
    <g id="Group_99" data-name="Group 99" transform="translate(918 1234.825)">
      <path id="Path_2415" data-name="Path 2415" class="cls-3" d="M25.006,1.477A20.9,20.9,0,0,1,42.871,19.343H40.035A18.1,18.1,0,0,0,25.006,4.314ZM37.174,20.731h7.175v2.887H37.174ZM23.618,37.174v7.175H20.731V37.174ZM23.618,0V7.174H20.731V0ZM0,20.731H7.174v2.887H0Zm42.871,4.275A20.893,20.893,0,0,1,25.006,42.871V40.035A18.1,18.1,0,0,0,40.035,25.006ZM19.343,42.871A20.9,20.9,0,0,1,1.477,25.006H4.314A18.1,18.1,0,0,0,19.343,40.035ZM1.477,19.343A20.9,20.9,0,0,1,19.343,1.477V4.314A18.092,18.092,0,0,0,4.314,19.343Zm6.43,2.831a15.9,15.9,0,0,1,28.535,0A15.9,15.9,0,0,1,7.907,22.174ZM25.061,15.81a5.3,5.3,0,1,1-8.19,4.451c0-.1,0-.2.009-.3a2.209,2.209,0,1,0,1.928-3.795,5.363,5.363,0,0,1,.464-.34,13.712,13.712,0,0,0-8.821,6.352,13.64,13.64,0,0,0,23.449,0A13.661,13.661,0,0,0,25.061,15.81Z"/>
    </g>
  </g>
</svg>
