<svg xmlns="http://www.w3.org/2000/svg" width="22.507" height="22.587" viewBox="0 0 22.507 22.587">
  <defs>
    <style>
      .cls-1 {
        fill: #d59c3b;
      }
    </style>
  </defs>
  <path id="Path_2426" data-name="Path 2426" class="cls-1" d="M39.753,32.326l-2.712-2.714a2.573,2.573,0,0,0-1.869-.848,2.661,2.661,0,0,0-1.885.841l-1.413,1.413-.2-.1a5.09,5.09,0,0,1-.463-.251,16.732,16.732,0,0,1-3.995-3.639A9.963,9.963,0,0,1,26,25.159c.358-.335.7-.677,1.014-1,.134-.137.276-.278.412-.415a2.528,2.528,0,0,0,0-3.805L26.08,18.588c-.153-.153-.3-.3-.449-.458l-.007-.007c-.294-.3-.611-.624-.927-.918a2.636,2.636,0,0,0-1.859-.8,2.71,2.71,0,0,0-1.878.809l-1.7,1.7a3.828,3.828,0,0,0-1.153,2.466,8.709,8.709,0,0,0,.652,3.78,21.374,21.374,0,0,0,3.821,6.383h0a23.56,23.56,0,0,0,7.825,6.13l0,0a12.406,12.406,0,0,0,4.448,1.31h.021c.1,0,.2.009.312.009a3.938,3.938,0,0,0,3.049-1.31c.014-.016.032-.034.05-.059a10.326,10.326,0,0,1,.766-.793l.064-.062c.26-.248.465-.453.647-.643a2.735,2.735,0,0,0,.829-1.907A2.655,2.655,0,0,0,39.753,32.326ZM19.989,21.532h0a1.991,1.991,0,0,1,.606-1.3l1.679-1.679a.839.839,0,0,1,.558-.273.807.807,0,0,1,.536.276l.014.014c.255.237.5.488.761.752l.118.121.237.242c.077.077.155.157.232.237l1.351,1.351a.912.912,0,0,1,.31.57.912.912,0,0,1-.31.57c-.071.071-.141.141-.212.214s-.139.141-.21.212l-.1.1c-.381.385-.743.75-1.133,1.1l-.039.039a1.272,1.272,0,0,0-.321,1.4c0,.016.009.027.014.041l.009.023a11.078,11.078,0,0,0,1.641,2.673l0,0a18.481,18.481,0,0,0,4.448,4.052,4.977,4.977,0,0,0,.533.294c.032.016.066.032.1.05l0,0a5.09,5.09,0,0,1,.463.251l.041.023.041.023a1.345,1.345,0,0,0,.615.155,1.308,1.308,0,0,0,.948-.422l1.691-1.691a.849.849,0,0,1,.551-.287.776.776,0,0,1,.515.278l0,0,2.73,2.725a.711.711,0,0,1-.018,1.158l0,0c-.191.205-.394.4-.586.586l-.055.052a12.605,12.605,0,0,0-.914.953,2.083,2.083,0,0,1-1.648.69c-.064,0-.137,0-.21-.009a10.53,10.53,0,0,1-3.753-1.128,21.608,21.608,0,0,1-7.2-5.638,19.763,19.763,0,0,1-3.5-5.831A6.963,6.963,0,0,1,19.989,21.532Z" transform="translate(-18.089 -16.4)"/>
</svg>
