<svg xmlns="http://www.w3.org/2000/svg" width="26.647" height="25.622" viewBox="0 0 26.647 25.622">
  <defs>
    <style>
      .profile-svg-icon {
        fill: #fafafa;
      }
    </style>
  </defs>
  <g id="Group_87" data-name="Group 87" transform="translate(-3 -4)">
    <path id="Path_2407" data-name="Path 2407" class="profile-svg-icon" d="M16.323,20.4a8.2,8.2,0,1,0-8.2-8.2A8.2,8.2,0,0,0,16.323,20.4Zm0-14.348A6.149,6.149,0,1,1,10.174,12.2,6.149,6.149,0,0,1,16.323,6.05Zm6.149,15.373h-12.3A7.182,7.182,0,0,0,3,28.6a1.025,1.025,0,0,0,1.025,1.025h24.6A1.025,1.025,0,0,0,29.647,28.6,7.182,7.182,0,0,0,22.473,21.423ZM5.153,27.572a5.133,5.133,0,0,1,5.021-4.1h12.3a5.133,5.133,0,0,1,5.021,4.1Z" transform="translate(0)"/>
  </g>
</svg>
