<svg id="Layer_2" data-name="Layer 2" xmlns="http://www.w3.org/2000/svg" width="60.63" height="60.618" viewBox="0 0 60.63 60.618">
  <defs>
    <style>
      .cls-1 {
        fill: #d59c3b;
      }

      .cls-2 {
        fill: none;
      }
    </style>
  </defs>
  <g id="Layer_1" data-name="Layer 1">
    <path id="Path_2401" data-name="Path 2401" class="cls-1" d="M43.9,19.765C39.969,11.472,32.476,6.792,27.166,9.308s-6.42,11.287-2.485,19.58C28.433,36.8,35.422,41.406,40.666,39.63a10.791,10.791,0,0,0-2.989-7.468C32.1,25.9,29.8,20.917,29.191,13.758a.946.946,0,1,1,1.885-.164c.606,6.7,2.77,11.39,8.05,17.3a13.051,13.051,0,0,1,3.437,7.771C46.855,35.526,47.54,27.439,43.9,19.765Z" transform="translate(-8.792 -3.398)"/>
    <path id="Path_2402" data-name="Path 2402" class="cls-1" d="M22.381,73.614c-7.935-.455-11.681-1.891-17.416-6.7A.946.946,0,1,1,6.178,65.46c5.492,4.595,8.687,5.826,16.313,6.262A18.222,18.222,0,0,1,32,75.311c1.031-5.347-4.243-11.681-12.36-14.549C10.991,57.647,2.377,59.635.407,65.175s3.437,12.518,12.088,15.6c8.178,2.916,16.313,1.291,18.841-3.577A16.572,16.572,0,0,0,22.381,73.614Z" transform="translate(-0.001 -23.348)"/>
    <path id="Path_2403" data-name="Path 2403" class="cls-1" d="M79.2,47.416C73.668,45.439,66.685,50.853,63.6,59.5,60.677,67.7,62.32,75.864,67.236,78.362a13.688,13.688,0,0,0,3.207-8.081c.455-7.971,2.225-12.591,7.02-18.313a.952.952,0,0,1,1.455,1.212c-4.553,5.431-6.153,9.614-6.553,17.21a15.5,15.5,0,0,1-3.195,8.626c5.328.964,11.621-4.286,14.506-12.372C86.725,57.994,84.737,49.386,79.2,47.416Z" transform="translate(-24.475 -18.512)"/>
    <rect id="Rectangle_62" data-name="Rectangle 62" class="cls-2" width="60.601" height="60.601"/>
  </g>
</svg>
